<?xml version="1.0" encoding="utf-8"?>
<!-- Generator: Adobe Illustrator 27.5.0, SVG Export Plug-In . SVG Version: 6.00 Build 0)  -->
<svg version="1.1" xmlns="http://www.w3.org/2000/svg" xmlns:xlink="http://www.w3.org/1999/xlink" x="0px" y="0px"
	 viewBox="0 0 673.423 500" style="enable-background:new 0 0 673.423 500;" xml:space="preserve">
<g id="BACKGROUND">
	<rect style="fill:#FFFFFF;" width="673.423" height="500"/>
</g>
<g id="OBJECTS">
	<path style="fill:#AFC9FC;" d="M636.117,371.797l-0.124-0.252c-0.802-1.57-1.694-2.585-2.402-3.317l-0.187-0.188
		c-0.917-0.904-1.887-1.65-2.736-2.277c-2.552-1.873-6.901-4.668-13.692-8.797c-11.778-7.16-27.892-16.468-36.943-21.66
		c0.062-0.927,0.088-1.852,0.077-2.777c-0.146-12.468-6.707-23.588-17.124-29.02c-3.104-1.617-6.387-2.668-9.76-3.125
		c-1.37-0.186-2.632-0.276-3.857-0.276c-1.17,0-2.304,0.085-3.394,0.256l-0.411-0.002c-0.701,0-1.402,0.013-2.09,0.035
		c-0.351,0.01-0.702,0.021-1.053,0.034c-0.762-2.868-2.218-5.495-4.361-7.717c-0.002-0.002-0.002-0.003-0.004-0.004
		c3.615-1.667,5.708-4.366,6.46-5.337c0.842-1.087,1.65-2.193,2.421-3.311c25.474-4.297,45.748-11.441,60.268-21.242
		c12.295-8.305,20.202-18.518,22.266-28.768c0.308-1.534,0.464-3.126,0.464-4.736c-0.003-4.289-1.118-8.778-3.317-13.349
		c-2.078-4.314-5.116-8.739-9.291-13.534c-0.418-0.479-0.824-0.935-1.223-1.376c-0.313-0.388-0.65-0.758-1.01-1.104
		c-0.615-0.666-1.195-1.281-1.721-1.836l-0.152-0.159c-0.61-0.642-1.115-1.163-1.419-1.508l-0.124-0.156
		c-0.723-0.91-2.227-2.806-4.484-5.129c-7.233-7.458-23.402-20.336-50.424-22.786c-1.451-0.132-3.025-0.196-4.815-0.196
		c-9.567,0.004-25.193,1.91-47.774,5.829c-24.014,4.171-55.785,10.623-94.43,19.179c-13.527,2.995-25.32,5.674-36.046,8.123
		l-2.947,0.673c-3.171,0.723-5.788,1.321-7.75,1.763c-1.114,0.252-2.011,0.452-2.686,0.598h-0.08l-0.066,0.014
		c-3.051-1.526-6.346-2.557-9.822-3.071c-1.399-0.206-3.272-0.442-5.339-0.442c-0.314,0-0.626,0.005-0.935,0.016
		c-1.079-0.163-2.183-0.285-3.299-0.366c-1.049-0.077-2.133-0.114-3.221-0.114c-1.868,0-3.839,0.113-5.857,0.337
		c-2.315,0.257-4.666,0.62-7.113,1.1c-1.804-0.805-4.251-1.879-7.623-3.36c-6.758-2.966-16.427-7.209-28.069-12.309
		c-21.235-9.304-53.399-23.374-86.042-37.572c-36.73-15.976-66.501-28.825-88.489-38.194c-13.117-5.588-23.614-10-31.197-13.115
		c-4.125-1.693-7.491-3.045-10.015-4.021c-3.243-1.252-5.039-1.874-6.437-2.228c-3.439-0.86-6.821-1.296-10.075-1.296
		c-12.044,0-18.608,5.871-20.142,7.436L36.5,97.162l-11.139,11.495l72.654,39.252l-7.715,8.45l27.562,15.442l-0.123,0.221
		c-2.043,3.668-1.992,8.192,0.131,11.806c2.132,3.627,6.068,5.881,10.274,5.881c0.899,0,1.8-0.102,2.669-0.303
		c3.335-0.763,6.446-1.892,9.051-2.895c0.617-0.238,1.268-0.493,1.944-0.766l51.256,26.892c-0.161,0.691-0.679,2.942-0.679,2.942
		c-0.913,4.006,0.281,8.082,3.024,10.933c2.144,2.441,5.263,3.923,8.624,3.923c1.467,0,2.905-0.278,4.268-0.821
		c2.698-1.075,5.287-2.273,7.657-3.455l20.592,10.451c-1.688,0.594-3.45,1.228-5.286,1.902
		c-13.006,4.769-20.866,8.526-25.425,11.045c-9.907-3.966-23.927-9.573-38.014-15.184c-15.147-6.033-27.27-10.834-36.029-14.27
		c-4.996-1.961-9.198-3.595-12.202-4.738c-1.573-0.6-2.833-1.071-3.739-1.397c-0.565-0.202-1.017-0.357-1.325-0.457
		c-0.329-0.108-0.605-0.19-0.861-0.26l-0.164-0.045l-0.709-0.171l-0.323-0.054c-0.665-0.118-1.323-0.18-2.007-0.189l-0.298-0.001
		l-0.84,0.032l-0.512,0.061c0,0-0.847,0.069-1.48,0.117c-1.626,0.123-4.086,0.309-6.438,0.56c-2.269,0.243-3.985,0.493-5.413,0.79
		c-0.913,0.191-2.128,0.478-3.445,1.015l-0.144,0.06c-1.232,0.523-2.31,1.166-3.294,1.964l-0.126,0.104
		c-1.067,0.893-1.97,1.942-2.652,3.064c-1.201,1.954-1.831,4.193-1.824,6.482c0.004,3.06,1.139,5.993,3.129,8.187
		c0.918,1.033,1.965,1.886,3.289,2.656c0.189,0.108,0.479,0.266,0.93,0.502c4.53,2.367,33.249,16.869,56.542,28.618
		c8.208,4.14,16.304,8.222,23.515,11.856c-0.005,0.189-0.009,0.382-0.009,0.579c0.004,1.988,0.281,4.17,0.901,7.099
		c0.311,1.453,0.617,2.633,0.757,3.156l1.526,5.589l5.241,2.414c1.343,0.613,16.864,7.653,35.926,14.616
		c11.727,4.284,22.495,7.706,32.007,10.173c12.594,3.263,22.815,4.851,31.25,4.853c0.562,0,1.119-0.008,1.669-0.023l13.802-0.165
		c1.697,0.546,3.49,0.828,5.317,0.828c1.123,0,2.258-0.108,3.387-0.321c1.78-0.34,3.475-0.928,5.077-1.76
		c1.732-0.206,3.461-0.443,5.193-0.682c0.701-0.097,1.414-0.204,2.128-0.33c0.932-0.111,1.863-0.227,2.783-0.364l1.103-0.163
		c1.935-0.285,3.871-0.57,5.805-0.872c1.547-0.242,3.095-0.477,4.643-0.712c3.035-0.46,6.072-0.92,9.099-1.428l3.18-0.538
		c0.874,0.596,1.808,1.157,2.798,1.682c6.845,3.635,16.371,5.478,28.315,5.48c6.484,0,13.813-0.545,21.823-1.62
		c1.197,0.45,2.425,0.902,3.692,1.338c1.987,0.682,3.977,1.357,5.966,2.032l1.47,0.499c1.753,0.595,3.506,1.197,5.258,1.798
		c2.282,0.784,4.564,1.567,6.851,2.339c-0.242,0.046-0.483,0.097-0.722,0.153c-7.587,1.772-13.697,7.793-16.764,16.523
		c-1.06,3.022-1.806,6.09-2.216,9.118c-0.685,5.048-0.023,9.573,1.966,13.447c3.247,6.323,9.937,10.252,17.46,10.252
		c0.049,0,0.098,0,0.147-0.001c0.288,0.023,0.577,0.033,0.868,0.033c0.105,0,0.211-0.002,0.316-0.004
		c1.477,1.743,3.246,3.176,5.223,4.205c2.381,1.241,5.063,1.897,7.757,1.897c2.463,0,4.879-0.523,7.177-1.552
		c4.026-1.802,6.745-4.708,8.445-6.743c2.146-2.576,3.709-4.931,4.919-7.417c3.367-6.93,3.686-14.322,0.898-20.817
		c-1.059-2.467-2.59-4.66-4.488-6.47c0.077-0.199,0.936-2.388,0.936-2.388c0.236-0.155,0.471-0.313,0.707-0.473l13.436,2.937
		c0.207,1.526,0.543,3.031,1.014,4.508c2.392,7.513,8.055,13.644,15.529,16.819c2.084,0.887,4.217,1.513,6.375,1.866
		c0.895,0.148,2.245,0.37,3.837,0.37c0.378,0,0.752-0.013,1.122-0.038c2.404,0.939,5.057,1.602,8.003,2.004
		c3.229,0.44,6.318,0.607,9.306,0.769l1.55,0.085c4.438,0.254,7.86,0.375,11.099,0.394l0.801,0.002
		c8.167,0,15.254-0.767,21.667-2.345c1.911-0.47,3.805-1.03,5.664-1.674l43.966,16.896c-0.189,1.608-0.278,2.95-0.28,4.17
		c0.006,1.158,0.079,2.717,0.585,4.508l0.068,0.231c0.549,1.79,1.39,3.329,2.57,4.705l0.076,0.088
		c1.1,1.255,2.415,2.263,3.861,2.969c1.699,0.84,3.6,1.284,5.498,1.284h0.03h0.024c1.779-0.007,3.51-0.386,5.165-1.134
		c0.971-0.442,1.897-1.011,2.808-1.734c0.833-0.67,1.655-1.454,2.597-2.48c1.343-1.466,2.977-3.49,4.962-6.148l2.965,1.72
		l6.177-3.713c1.603-0.973,3.019-2.337,4.064-3.895c1.584-2.337,2.413-5.113,2.397-7.967
		C637.93,376.838,637.321,374.309,636.117,371.797z"/>
	<g>
		<path style="fill:#222221;" d="M517.429,307.782c0.945-1.511,1.894-3.1,1.595-4.955c-0.15-0.928-0.667-1.753-1.454-2.27
			c-0.689-0.453-2.068-0.758-2.48,0.215c-0.112,0.266-0.061,0.496,0.176,0.672c0.526,0.389,1.213,0.291,1.71,0.758
			c0.508,0.477,0.605,1.261,0.524,1.92c-0.102,0.836-0.476,1.62-0.883,2.346c-0.39,0.696-0.786,1.42-1.298,2.036
			c-0.89,1.072-2.549,1.934-3.71,0.726c-1.177-1.225-0.896-3.261-0.204-4.654c0.123-0.247-0.224-0.455-0.372-0.217
			c-0.475,0.765-0.934,1.52-1.073,2.424c-0.115,0.751-0.066,1.526,0.24,2.228c0.618,1.416,2.044,2.272,3.581,1.954
			C515.479,310.613,516.565,309.164,517.429,307.782z"/>
		<path style="fill:#222221;" d="M513.524,309.198c0.285-0.062,0.573-0.178,0.816-0.341c0.126-0.084,0.24-0.188,0.34-0.302
			c0.141-0.161,0.223-0.292,0.24-0.51c0.018-0.238-0.258-0.343-0.441-0.253c-0.129,0.064-0.209,0.154-0.311,0.251l-0.136,0.119
			l-0.026,0.018l-0.071,0.055c-0.097,0.072-0.199,0.137-0.306,0.193c-0.118,0.061-0.15,0.074-0.286,0.115
			c-0.418,0.128-0.869,0.141-1.291-0.059c-0.292-0.138-0.538,0.264-0.256,0.439C512.309,309.241,512.939,309.325,513.524,309.198z"
			/>
		<path style="fill:#222221;" d="M512.471,304.57c0.326-0.293,0.655-0.583,0.977-0.88c0.157-0.145,0.301-0.301,0.447-0.456
			l0.247-0.269c0.09-0.116,0.129-0.251,0.146-0.394c0.016-0.127-0.129-0.267-0.254-0.254c-0.128,0.014-0.25,0.046-0.36,0.115
			c-0.108,0.069-0.202,0.174-0.297,0.26c-0.162,0.148-0.325,0.293-0.476,0.452c-0.301,0.318-0.596,0.642-0.894,0.963
			c-0.117,0.126-0.134,0.34,0,0.463C512.145,304.696,512.335,304.693,512.471,304.57z"/>
		<path style="fill:#222221;" d="M534.297,276.368c0.106,0.056,0.234,0.084,0.352,0.046c0.11-0.036,0.217-0.104,0.273-0.21
			l0.098-0.185c0.05-0.095,0.104-0.188,0.138-0.291l0.062-0.197l0.036-0.146c0.015-0.11-0.011-0.206-0.069-0.299
			c-0.062-0.099-0.18-0.185-0.303-0.174l-0.242,0.061l-0.192,0.209l-0.127,0.177l-0.095,0.187l-0.093,0.197l-0.054,0.17l0.008,0.182
			C534.116,276.202,534.198,276.316,534.297,276.368z"/>
		<path style="fill:#222221;" d="M568.738,263.744c0.561-0.213,1.121-0.434,1.685-0.638c0.277-0.1,0.554-0.201,0.831-0.301
			c0.141-0.051,0.278-0.109,0.415-0.168c0.156-0.066,0.246-0.123,0.349-0.259c0.068-0.09-0.002-0.244-0.108-0.266
			c-0.156-0.032-0.265-0.015-0.413,0.035c-0.14,0.047-0.279,0.095-0.416,0.15c-0.275,0.109-0.549,0.219-0.824,0.327
			c-0.549,0.216-1.103,0.42-1.655,0.63c-0.128,0.049-0.216,0.171-0.177,0.313C568.46,263.689,568.609,263.793,568.738,263.744z"/>
		<polygon style="fill:#222221;" points="575.458,260.658 575.408,260.656 575.361,260.671 575.255,260.742 575.2,260.796 
			575.18,260.872 575.224,260.979 575.331,261.023 575.407,261.002 575.461,260.948 575.532,260.841 575.545,260.812 
			575.547,260.762 575.513,260.69 		"/>
		<path style="fill:#222221;" d="M577.412,210.963c0.815,0.22,1.632,0.432,2.449,0.642c1.609,0.413,3.227,0.761,4.856,1.088
			c0.42,0.084,0.6-0.532,0.178-0.648c-1.6-0.439-3.201-0.852-4.824-1.204c-0.796-0.173-1.592-0.344-2.389-0.507
			c-0.783-0.159-1.574-0.381-2.373-0.407c-0.184-0.006-0.275,0.279-0.098,0.361C575.909,210.608,576.672,210.763,577.412,210.963z"
			/>
		<path style="fill:#222221;" d="M397.749,240.724c3.408-0.518,6.809-1.105,10.207-1.681c3.315-0.562,6.63-1.141,9.954-1.643
			c3.004-0.454,6.345-0.784,9.232,0.388c2.524,1.023,4.489,3.023,5.229,5.652c0.155,0.549,0.899,0.396,0.947-0.128
			c0.242-2.617-1.552-5.063-3.663-6.421c-2.632-1.693-5.853-2.038-8.908-1.747c-3.532,0.336-7.03,1.185-10.507,1.869
			c-3.599,0.709-7.201,1.407-10.803,2.099c-1.98,0.381-3.953,0.803-5.932,1.191c-2.069,0.406-4.107,0.934-6.171,1.356
			c-0.391,0.08-0.219,0.649,0.163,0.59c1.732-0.271,3.48-0.428,5.21-0.713C394.388,241.26,396.066,240.98,397.749,240.724z"/>
		<path style="fill:#222221;" d="M436.469,268.511c0.344,2.653-0.279,5.621-1.608,7.939c-0.598,1.043-1.343,2.044-2.16,2.928
			c-0.84,0.908-1.941,1.525-2.779,2.42c-0.165,0.176-0.061,0.537,0.213,0.514c1.297-0.105,2.479-0.953,3.472-1.733
			c1.145-0.9,2.07-1.957,2.774-3.24c0.73-1.329,1.234-2.812,1.425-4.316c0.199-1.566-0.006-3.115-0.383-4.641
			C437.297,267.863,436.397,267.957,436.469,268.511z"/>
		<path style="fill:#222221;" d="M285.836,290.206c-0.788,0-1.467,0.484-2.027,0.989c-1.069,0.965-1.985,2.146-2.725,3.379
			c-0.461,0.77-0.868,1.604-1.138,2.472c-0.126,0.363-0.242,0.73-0.339,1.106c-0.271,1.051-0.673,2.474,0.116,3.4
			c0.949,1.115,2.449,0.476,3.381-0.29c1.971-1.62,3.436-3.881,4.222-6.299c0.395-1.215,0.848-2.786,0.045-3.934
			C287.021,290.528,286.455,290.206,285.836,290.206z M286.109,294.207c-0.565,1.945-1.615,3.743-3.03,5.192
			c-0.332,0.34-0.681,0.687-1.065,0.969c-0.275,0.202-0.8,0.577-1.164,0.413c-0.619-0.28-0.277-1.696-0.095-2.391
			c0.372-0.733,0.706-1.483,1.087-2.215c0.472-0.905,1.032-1.769,1.687-2.552c0.303-0.362,0.623-0.71,0.959-1.042
			c0.333-0.329,0.831-0.931,1.348-0.926C286.898,291.664,286.259,293.689,286.109,294.207z"/>
		<path style="fill:#222221;" d="M292.8,297.493c-0.236,0.158-0.403,0.466-0.557,0.698c-0.16,0.24-0.283,0.504-0.396,0.768
			c-0.235,0.552-0.479,1.1-0.729,1.645c-0.136,0.297,0.285,0.558,0.446,0.261c0.283-0.525,0.572-1.046,0.87-1.563
			c0.147-0.256,0.291-0.522,0.389-0.801c0.092-0.261,0.246-0.582,0.23-0.864C293.046,297.519,292.912,297.418,292.8,297.493z"/>
		<path style="fill:#222221;" d="M336.026,249.504c0.345,0.326,0.69,0.65,1.04,0.97c0.186,0.169,0.37,0.34,0.557,0.507
			c0.187,0.168,0.4,0.287,0.614,0.417c0.192,0.116,0.467-0.127,0.324-0.324c-0.134-0.186-0.259-0.388-0.425-0.547
			c-0.181-0.174-0.367-0.342-0.551-0.514c-0.357-0.333-0.719-0.661-1.082-0.987c-0.727-0.654-1.469-1.29-2.209-1.929
			c-0.249-0.215-0.605,0.129-0.365,0.365C334.624,248.147,335.317,248.833,336.026,249.504z"/>
		<path style="fill:#222221;" d="M340.977,251.942c0.905,0.775,2.469,0.412,3.505,0.102c1.177-0.353,2.268-0.947,3.202-1.744
			c1.83-1.563,2.796-3.882,2.739-6.266c-0.013-0.546-0.764-0.515-0.827,0c-0.241,1.997-1.327,3.932-2.858,5.22
			c-0.764,0.643-1.687,1.105-2.645,1.376c-0.477,0.135-0.968,0.23-1.462,0.273c-0.539,0.048-1.081,0.046-1.561,0.328
			C340.833,251.371,340.752,251.75,340.977,251.942z"/>
		<path style="fill:#222221;" d="M352.246,233.955c0.01,0.149,0.021,0.299,0.031,0.448c0.013,0.192,0.052,0.339,0.13,0.517
			c0.128,0.292,0.536,0.165,0.622-0.081c0.103-0.294,0.066-0.61,0.064-0.918c-0.003-0.3-0.019-0.597-0.04-0.897l-0.124-1.793
			c-0.032-0.465-0.737-0.476-0.732,0c0.006,0.609,0.012,1.219,0.018,1.828C352.216,233.359,352.226,233.656,352.246,233.955z"/>
		<path style="fill:#222221;" d="M350.636,253.138c0.994-0.375,1.977-0.8,2.878-1.368c0.907-0.572,1.745-1.324,2.476-2.105
			c0.735-0.785,1.391-1.635,1.939-2.561c0.268-0.454,0.513-0.921,0.73-1.402c0.148-0.329,0.264-0.608,0.258-0.971
			c-0.003-0.239,0.016-0.524-0.055-0.753c-0.071-0.23-0.373-0.4-0.594-0.242c-0.184,0.131-0.277,0.312-0.437,0.462
			c-0.219,0.206-0.353,0.393-0.473,0.669c-0.203,0.464-0.42,0.919-0.666,1.362c-0.48,0.865-1.039,1.705-1.677,2.461
			c-1.275,1.511-2.878,2.928-4.623,3.866C350.079,252.723,350.293,253.267,350.636,253.138z"/>
		<path style="fill:#222221;" d="M359.036,241.955c0.203-0.394,0.407-0.787,0.607-1.182c0.054-0.106,0.031-0.252-0.082-0.312
			c-0.12-0.064-0.235-0.02-0.312,0.082c-0.269,0.355-0.534,0.712-0.8,1.069l-0.034,0.262l0.156,0.203
			C358.727,242.16,358.949,242.124,359.036,241.955z"/>
		<path style="fill:#222221;" d="M323.405,264.716c0.78-0.122,1.561-0.243,2.341-0.365c0.38-0.059,0.772-0.097,1.144-0.194
			c0.369-0.096,0.798-0.151,1.084-0.425c0.12-0.114,0.105-0.357-0.056-0.433c-0.369-0.173-0.803-0.099-1.197-0.066
			c-0.398,0.033-0.793,0.118-1.186,0.184c-0.793,0.134-1.585,0.268-2.377,0.401c-0.248,0.042-0.386,0.348-0.325,0.572
			C322.906,264.657,323.156,264.755,323.405,264.716z"/>
		<path style="fill:#222221;" d="M331.393,261.094c0.603-0.21,1.207-0.419,1.811-0.629c0.132-0.046,0.219-0.177,0.181-0.318
			c-0.038-0.136-0.183-0.217-0.318-0.18c-0.616,0.165-1.231,0.331-1.847,0.496c-0.165,0.044-0.283,0.235-0.228,0.403
			C331.042,261.025,331.219,261.154,331.393,261.094z"/>
		<path style="fill:#222221;" d="M196.091,285.925c0.493,0,0.494-0.766,0-0.766C195.598,285.159,195.597,285.925,196.091,285.925z"
			/>
		<path style="fill:#222221;" d="M212.664,270.257c0.421,0.126,0.817,0.289,1.255,0.164c0.374-0.107,0.454-0.544,0.216-0.82
			c-0.29-0.336-0.731-0.415-1.142-0.538c-0.448-0.134-0.899-0.256-1.349-0.382c-0.868-0.243-1.736-0.487-2.605-0.726
			c-1.771-0.486-3.576-0.844-5.354-1.31c-0.33-0.086-0.458,0.399-0.14,0.507c1.744,0.59,3.452,1.285,5.203,1.854
			c0.858,0.279,1.718,0.552,2.577,0.827C211.772,269.975,212.216,270.122,212.664,270.257z"/>
		<path style="fill:#222221;" d="M223.259,259.422l0.274-0.14l0.248-0.186c0.208-0.155,0.083-0.447-0.173-0.409
			c-0.102,0.015-0.205,0.027-0.307,0.046c-0.101,0.018-0.197,0.06-0.293,0.096c-0.186,0.069-0.373,0.137-0.559,0.206
			c-0.381,0.14-0.752,0.309-1.126,0.466c-0.169,0.071-0.311,0.236-0.247,0.434c0.053,0.164,0.252,0.322,0.434,0.246
			c0.397-0.163,0.8-0.316,1.189-0.498C222.886,259.596,223.073,259.509,223.259,259.422z"/>
		<path style="fill:#222221;" d="M382.367,264.811c1.108-0.648,2.193-1.334,3.25-2.063c0.512-0.353,1.018-0.715,1.518-1.086
			c0.289-0.215,0.6-0.423,0.849-0.684c0.25-0.263,0.327-0.588,0.521-0.883c0.333-0.505-0.225-1.268-0.812-1.056
			c-0.251,0.09-0.511,0.09-0.759,0.18c-0.263,0.095-0.484,0.268-0.707,0.431c-0.471,0.344-0.94,0.691-1.418,1.026
			c-0.892,0.624-1.803,1.223-2.729,1.796c-1.886,1.167-3.842,2.213-5.852,3.15c-4.03,1.88-8.275,3.448-12.645,4.32
			c-1.234,0.246-2.478,0.449-3.727,0.601c-1.136,0.138-2.503,0.164-3.544,0.67c-0.286,0.139-0.169,0.53,0.081,0.622
			c1.006,0.368,2.3,0.202,3.347,0.104c1.108-0.104,2.213-0.257,3.312-0.429c2.263-0.354,4.532-0.805,6.747-1.393
			C374.2,268.948,378.44,267.107,382.367,264.811z"/>
		<path style="fill:#222221;" d="M390.988,256.817c0.142-0.143,0.285-0.287,0.427-0.43l0.207-0.208
			c0.09-0.091,0.158-0.197,0.229-0.302c0.072-0.107,0.049-0.263-0.025-0.359l-0.129-0.1l-0.21-0.016
			c-0.114,0.045-0.233,0.083-0.337,0.149l-0.256,0.161l-0.511,0.321c-0.253,0.159-0.326,0.493-0.14,0.734
			C390.423,256.999,390.776,257.03,390.988,256.817z"/>
		<path style="fill:#222221;" d="M324.423,282.88c2.971-1.715,5.836-3.581,8.751-5.385c1.438-0.89,2.88-1.769,4.3-2.686
			c0.691-0.446,1.382-0.893,2.071-1.342c0.7-0.455,1.54-0.922,1.909-1.705c0.195-0.416-0.03-0.995-0.558-0.972
			c-0.834,0.036-1.519,0.517-2.189,0.973c-0.681,0.464-1.359,0.932-2.038,1.399c-1.437,0.986-2.845,2.009-4.261,3.024
			c-2.798,2.006-5.635,3.942-8.372,6.033C323.656,282.509,323.982,283.135,324.423,282.88z"/>
		<path style="fill:#222221;" d="M345.423,269.091c0.316,0,0.316-0.491,0-0.491C345.107,268.6,345.106,269.091,345.423,269.091z"/>
		<polygon style="fill:#222221;" points="242.767,194.387 242.709,194.373 242.697,194.371 242.773,194.39 		"/>
		<path style="fill:#222221;" d="M265.007,217.046c-0.111,0.067-0.227,0.129-0.334,0.202c-0.127,0.087-0.234,0.209-0.345,0.316
			c-0.194,0.187-0.387,0.374-0.581,0.56c-0.136,0.132-0.142,0.381,0,0.511c0.142,0.131,0.371,0.146,0.512,0
			c0.187-0.194,0.374-0.387,0.56-0.581c0.098-0.101,0.203-0.199,0.289-0.31c0.087-0.113,0.155-0.246,0.229-0.368
			C265.461,217.17,265.213,216.922,265.007,217.046z"/>
		<path style="fill:#222221;" d="M275.495,227.209c0.023-0.156-0.037-0.306-0.202-0.355c-0.25-0.074-0.466,0.044-0.683,0.159
			c-0.219,0.116-0.427,0.247-0.637,0.38c-0.406,0.257-0.809,0.515-1.207,0.782c-0.405,0.271-0.764,0.58-1.15,0.875
			c-0.394,0.301-0.816,0.57-1.223,0.853c-0.305,0.212-0.033,0.702,0.296,0.506c0.423-0.254,0.841-0.524,1.273-0.762
			c0.423-0.233,0.854-0.427,1.265-0.684c0.407-0.254,0.808-0.516,1.208-0.78c0.213-0.141,0.423-0.281,0.625-0.438
			C275.244,227.6,275.459,227.458,275.495,227.209z"/>
		<path style="fill:#222221;" d="M211.784,281.869c1.635-0.498,3.279-0.965,4.923-1.428c0.792-0.223,1.571-0.5,2.351-0.76
			c0.858-0.286,1.695-0.514,2.417-1.077c0.486-0.379,0.062-1.172-0.484-1.169c-0.844,0.005-1.598,0.342-2.379,0.626
			c-0.807,0.293-1.623,0.574-2.415,0.907c-1.554,0.656-3.115,1.295-4.686,1.912C210.913,281.116,211.139,282.066,211.784,281.869z"
			/>
		<path style="fill:#222221;" d="M225.732,277.149c0.305,0,0.305-0.474,0-0.474C225.427,276.676,225.427,277.149,225.732,277.149z"
			/>
		<path style="fill:#222221;" d="M224.933,290.194l-0.175-0.262l-0.22-0.072l-0.102,0.208c0.134,0.416,0.329,0.813,0.503,1.214
			l0.159,0.123l0.206-0.027c0.122-0.079,0.17-0.235,0.096-0.365c-0.104-0.182-0.207-0.364-0.311-0.546L224.933,290.194z"/>
		<path style="fill:#222221;" d="M459.479,287.015c1.024-0.049,2.037-0.245,3.06-0.286c1.016-0.041,2.047-0.308,3.048-0.482
			c0.215-0.037,0.331-0.298,0.28-0.493c-0.061-0.231-0.28-0.31-0.493-0.28c-0.993,0.143-2.031,0.216-2.999,0.482
			c-0.971,0.267-1.976,0.395-2.95,0.661C459.21,286.676,459.246,287.026,459.479,287.015z"/>
		<path style="fill:#222221;" d="M482.045,278.576c4.414-0.733,8.796-1.54,13.169-2.49c0.409-0.089,0.232-0.696-0.172-0.623
			c-4.398,0.796-8.749,1.727-13.1,2.739C481.695,278.259,481.803,278.616,482.045,278.576z"/>
		<path style="fill:#222221;" d="M349.249,304.747c-2.173-0.304-4.437,0.328-6.559,0.753c-2.195,0.439-4.389,0.883-6.58,1.343
			c-4.419,0.929-8.793,2.063-13.169,3.165c-0.414,0.104-0.227,0.68,0.172,0.623c4.451-0.636,8.908-1.252,13.335-2.048
			c2.16-0.388,4.316-0.806,6.471-1.223c1.076-0.208,2.161-0.389,3.229-0.633c1.08-0.247,2.251-0.585,3.21-1.146
			C349.664,305.401,349.656,304.804,349.249,304.747z"/>
		<path style="fill:#222221;" d="M361.87,302.765c-0.482,0.073-0.958,0.176-1.435,0.274c-0.484,0.098-0.954,0.153-1.428,0.299
			c-0.929,0.285-1.855,0.576-2.785,0.858c-0.351,0.106-0.205,0.63,0.151,0.548c0.947-0.219,1.896-0.428,2.844-0.643
			c0.484-0.11,0.918-0.296,1.386-0.452c0.462-0.153,0.925-0.3,1.379-0.477C362.238,303.073,362.139,302.724,361.87,302.765z"/>
		<path style="fill:#222221;" d="M419.251,353.95c-0.631-0.529-1.455-0.882-2.291-0.841c-0.83,0.041-1.707,0.431-1.949,1.299
			c-0.096,0.344,0.176,0.726,0.544,0.714c1.006-0.032,2.108-0.157,2.706,0.851c0.709,1.193,0.251,2.68-0.206,3.871
			c-0.263,0.686-0.606,1.336-0.954,1.982c-0.336,0.623-0.669,1.236-1.192,1.725c-0.742,0.695-2.301,1.255-3.04,0.253
			c-0.271-0.368-0.85-0.054-0.624,0.365c0.583,1.085,1.883,1.504,3.043,1.291c1.425-0.261,2.461-1.584,3.193-2.738
			c0.868-1.369,1.84-2.811,2.102-4.441C420.827,356.762,420.483,354.982,419.251,353.95z"/>
		<path style="fill:#222221;" d="M413.636,359.096c0.242,0.128,0.489,0.045,0.642-0.168c0.297-0.416,0.595-0.832,0.892-1.248
			c0.146-0.205,0.295-0.406,0.422-0.624c0.146-0.249,0.357-0.509,0.339-0.81c-0.014-0.236-0.232-0.443-0.48-0.365
			c-0.172,0.054-0.282,0.138-0.393,0.277c-0.08,0.1-0.16,0.2-0.24,0.301c-0.179,0.224-0.337,0.459-0.495,0.698
			c-0.285,0.432-0.571,0.865-0.856,1.297C413.333,358.659,413.421,358.982,413.636,359.096z"/>
		<path style="fill:#222221;" d="M436.598,365.638c0.227,0,0.227-0.353,0-0.353C436.371,365.284,436.37,365.638,436.598,365.638z"/>
		<path style="fill:#222221;" d="M498.07,323.189c0.152-0.185,0.181-0.446,0-0.627c-0.159-0.159-0.472-0.184-0.627,0
			c-0.473,0.559-0.946,1.118-1.419,1.677c-0.474,0.56-0.914,1.151-1.368,1.727c-0.135,0.172-0.167,0.405,0,0.572
			c0.147,0.147,0.427,0.165,0.572,0c0.482-0.548,0.982-1.085,1.446-1.65C497.14,324.322,497.605,323.755,498.07,323.189z"/>
		<path style="fill:#222221;" d="M543.538,349.513c3.899,2.09,8.699,2.413,12.719,0.465c2.05-0.994,3.839-2.65,4.987-4.617
			c0.572-0.98,0.952-1.97,1.13-3.089c0.178-1.119,0.033-2.216-0.281-3.307c-0.064-0.223-0.434-0.252-0.481,0
			c-0.319,1.685-1.084,3.403-1.944,4.885c-0.862,1.485-2.068,2.792-3.529,3.701c-3.236,2.014-7.514,1.986-10.933,0.43
			c-6.886-3.133-9.959-11.264-8.831-18.426c0.32-2.033,0.926-4.003,1.851-5.844c0.465-0.925,0.982-1.821,1.576-2.67
			c0.588-0.839,1.28-1.597,1.855-2.444c0.177-0.261-0.171-0.595-0.43-0.43c-1.624,1.034-2.859,2.828-3.83,4.46
			c-1.012,1.7-1.761,3.601-2.253,5.515c-1.011,3.929-0.859,8.168,0.566,11.977C537.162,344.005,539.839,347.53,543.538,349.513z"/>
		<path style="fill:#222221;" d="M543.217,320.573c0.324-0.138,0.63-0.308,0.934-0.479c2.832,1.836,5.35,4.171,7.013,7.138
			c1.877,3.347,2.63,7.152,2.256,10.965c-0.106,1.079-0.295,2.143-0.509,3.205c-0.231,1.144-0.59,2.236-0.853,3.369
			c-0.079,0.342,0.365,0.661,0.626,0.364c1.374-1.56,2.193-3.727,2.553-5.752c0.386-2.17,0.348-4.402-0.027-6.57
			c-0.683-3.943-2.772-7.589-5.683-10.314c-1.307-1.223-2.747-2.209-4.351-2.938c0.147-0.067,0.293-0.136,0.449-0.19
			c0.161-0.056,0.333-0.083,0.499-0.129c0.015,0.096,0.06,0.188,0.18,0.229c2.773,0.943,5.32,3.045,7.018,5.416
			c0.907,1.267,1.61,2.683,2.058,4.176c0.455,1.514,0.536,3.091,1.004,4.599c0.112,0.362,0.581,0.332,0.706,0
			c0.627-1.674,0.263-3.452-0.257-5.12c-0.514-1.648-1.302-3.195-2.351-4.566c-0.95-1.243-2.149-2.462-3.509-3.262
			c-1.26-0.741-2.666-1.272-4.075-1.671c0.451-0.083,0.906-0.138,1.358-0.167c1.807-0.115,3.609,0.288,5.193,1.166
			c3.636,2.017,5.814,5.765,7.01,9.631c0.786,2.54,1.57,5.128,2.075,7.739c0.057,0.292,0.55,0.23,0.524-0.071
			c-0.226-2.597-0.228-5.201-0.883-7.745c-0.6-2.329-1.517-4.622-2.85-6.631c-2.428-3.66-6.22-6.408-10.769-6.263
			c-1.218,0.039-2.393,0.309-3.496,0.827c-0.982,0.462-2.185,1.201-2.672,2.213C542.109,320.32,542.66,320.811,543.217,320.573z"/>
		<path style="fill:#222221;" d="M550.037,344.013v0.122h0.122c0.134-0.116,0.269-0.232,0.403-0.348l0.037-0.088l-0.037-0.088
			h-0.177C550.269,343.745,550.153,343.879,550.037,344.013z"/>
		<path style="fill:#222221;" d="M556.369,338.177c-0.135,0.444-0.27,0.888-0.404,1.332c-0.065,0.215-0.129,0.427-0.175,0.647
			c-0.025,0.117-0.054,0.235-0.074,0.354c-0.021,0.124-0.01,0.251-0.009,0.375c0.002,0.21,0.276,0.275,0.385,0.104
			c0.067-0.105,0.143-0.207,0.189-0.324c0.044-0.112,0.083-0.227,0.124-0.34c0.077-0.211,0.135-0.425,0.193-0.642
			c0.12-0.448,0.24-0.896,0.36-1.344C557.061,337.959,556.483,337.801,556.369,338.177z"/>
		<path style="fill:#222221;" d="M558.352,326.925c-0.382-0.763-0.92-1.544-1.664-1.997c-0.379-0.231-0.742,0.149-0.683,0.525
			c0.126,0.811,0.544,1.585,0.923,2.304c0.356,0.673,0.675,1.365,0.945,2.077c0.278,0.73,0.52,1.473,0.799,2.201
			c0.295,0.772,0.56,1.564,0.716,2.375c0.08,0.419,0.763,0.324,0.744-0.101c-0.038-0.846-0.055-1.685-0.151-2.528
			c-0.097-0.855-0.333-1.71-0.626-2.517C559.066,328.467,558.731,327.683,558.352,326.925z"/>
		<path style="fill:#222221;" d="M552.766,320.833l-0.174-0.132l-0.195-0.06c-0.116-0.024-0.272,0.082-0.217,0.217l0.066,0.159
			l0.149,0.156l0.282,0.25c0.194,0.161,0.395,0.314,0.593,0.47c0.395,0.313,0.791,0.627,1.186,0.94h0.292v-0.292
			c-0.378-0.331-0.756-0.662-1.134-0.993c-0.184-0.16-0.365-0.323-0.55-0.482C552.967,320.985,552.865,320.91,552.766,320.833z"/>
		<path style="fill:#222221;" d="M336.553,234.381c0.167,0.025,0.268,0.058,0.461,0.061l0.05-0.008
			c0.096,0.031,0.186,0.074,0.298,0.078l0.141-0.006c0.143-0.003,0.285,0.009,0.428,0.02l0.149,0.013l0.158,0.029
			c0.152,0.033,0.3,0.08,0.447,0.13l0.029,0.008l0.027,0.018l0.219,0.121c0.12,0.066,0.231,0.142,0.344,0.219l0.059,0.05
			l0.204,0.199l0.077,0.085l0.089,0.123l0.111,0.185l0.065,0.133c0.043,0.117,0.084,0.235,0.113,0.357l0.036,0.17l0.001,0.011
			l0.01,0.145c0.007,0.145,0.004,0.291-0.008,0.436l-0.011,0.109l0,0.007l-0.038,0.173c-0.033,0.14-0.082,0.273-0.126,0.409
			l-0.036,0.083l-0.122,0.223l-0.118,0.183l-0.025,0.038l-0.054,0.068c-0.024,0.032-0.237,0.321-0.101,0.139
			c-0.155,0.209-0.271,0.402-0.267,0.674c0.009,0.604,0.569,1.022,1.159,0.859c0.448-0.123,0.792-0.596,1.024-0.973
			c0.193-0.314,0.344-0.669,0.447-1.022c0.41-1.403,0.034-3.031-1.074-4.017c-0.601-0.535-1.337-0.886-2.134-0.999
			c-0.445-0.063-0.849-0.064-1.292,0.029c-0.148,0.031-0.282,0.081-0.404,0.172l-0.104,0.087l-0.061,0.039
			c-0.219,0.144-0.312,0.26-0.45,0.453C336.109,233.92,336.267,234.338,336.553,234.381z"/>
		<path style="fill:#222221;" d="M542.757,335.436l-0.049,0.187l-0.026,0.08l-0.043,0.099l-0.169,0.286l-0.016,0.019l-0.043,0.049
			l-0.135,0.139l-0.11,0.097l-0.065,0.044c-0.256,0.167-0.49,0.331-0.719,0.534c-0.398,0.352-0.212,1.141,0.327,1.239
			c0.495,0.09,0.925,0.021,1.344-0.272c0.346-0.242,0.622-0.52,0.868-0.861c0.414-0.574,0.653-1.341,0.576-2.05
			c-0.083-0.76-0.416-1.479-0.984-2.003c-0.273-0.252-0.643-0.482-1.003-0.581c-0.334-0.091-0.705-0.104-1.05-0.09
			c-0.289,0.012-0.54,0.213-0.575,0.508c-0.032,0.268,0.129,0.588,0.419,0.643l0.184,0.041l0.077,0.034l0.161,0.092l0.031,0.016
			l0.019,0.017l0.255,0.193l0.022,0.014l0.018,0.02l0.247,0.245l0.13,0.139l0.024,0.029l0.001,0.002
			c0.06,0.1,0.126,0.194,0.179,0.299l0.028,0.06l0.046,0.149l0.043,0.185l0.002,0.007l-0.002,0.016c0,0.092,0.018,0.235-0.005,0.338
			L542.757,335.436z"/>
		<path style="fill:#222221;" d="M625.664,378.088c-0.16-0.314-0.318-0.469-0.507-0.665c-0.364-0.359-0.863-0.756-1.525-1.244
			c-2.466-1.812-7.171-4.783-12.893-8.263c-17.151-10.426-43.312-25.296-43.317-25.299c-0.06-0.034-0.125-0.04-0.188-0.062
			c0.901-2.725,1.375-5.574,1.343-8.366c-0.091-7.896-4.061-15.654-11.196-19.374c-1.925-1.004-3.994-1.686-6.146-1.978
			c-1.566-0.212-3.38-0.303-4.971,0.142c-0.261-0.028-0.522-0.059-0.787-0.062c-0.727-0.006-1.457,0.004-2.183,0.026
			c-1.501,0.046-3.003,0.113-4.503,0.196c-2.955,0.163-5.922,0.31-8.87,0.582c-0.178,0.016-0.373,0.064-0.541,0.154
			c2.129-3.711,3.388-8.709,0.234-11.981c-1.1-1.141-3.062-1.89-4.71-1.602l-0.018-0.208c-0.026-0.206-0.069-0.441-0.157-0.637
			c0.435-1.312,0.834-2.587,1.086-3.959c0.264-1.44,0.521-2.879,0.762-4.323c0.241-1.445,0.484-2.89,0.717-4.336
			c0.116-0.724,0.233-1.447,0.349-2.171c0.033-0.207,0.066-0.404,0.094-0.597c0.147,0.039,0.293,0.085,0.441,0.122
			c1.39,0.354,2.915,0.676,4.322,0.217c1.179-0.384,2.052-1.292,2.792-2.246c1.758-2.269,3.367-4.66,4.782-7.157
			c0.193,0.196,0.454,0.324,0.753,0.334c0.522,0.017,1.098-0.157,1.613-0.247c0.476-0.083,0.959-0.149,1.432-0.25
			c0.036-0.008,0.071-0.021,0.107-0.029c0.037-0.002,0.072,0.01,0.11,0.004l0,0c27.128-4.522,45.005-11.877,56.435-19.591
			c11.424-7.717,16.418-15.786,17.63-21.803c0.17-0.848,0.248-1.704,0.248-2.561c-0.002-2.91-0.896-5.811-2.224-8.572
			c-1.996-4.141-4.986-7.993-7.669-11.074c-0.484-0.556-0.953-1.076-1.409-1.578c-0.076-0.125-0.172-0.229-0.288-0.316
			c-0.7-0.762-1.357-1.461-1.933-2.068c-1.02-1.072-1.815-1.903-2.14-2.313c-0.552-0.69-1.861-2.398-3.966-4.564
			c-6.318-6.515-19.988-17.35-43.508-19.483c-1.126-0.102-2.399-0.15-3.813-0.15c-9.74,0.004-26.337,2.274-45.894,5.667
			c-29.32,5.092-65.211,12.723-93.933,19.082c-14.36,3.179-26.927,6.041-35.979,8.107c-4.526,1.033-8.173,1.867-10.725,2.443
			c-1.275,0.288-2.278,0.511-2.974,0.661c-0.348,0.075-0.62,0.132-0.806,0.168l-0.206,0.038l-0.001,0h-0.052l-3.212,0.676
			c-0.62-0.466-1.261-0.909-1.947-1.3c-2.3-1.311-4.865-2.164-7.481-2.549c-1.651-0.243-3.489-0.442-5.231-0.247l-0.025-0.005
			c-1.157-0.219-2.331-0.367-3.506-0.452c-2.356-0.171-4.725-0.076-7.071,0.185c-3.214,0.356-6.409,0.946-9.564,1.686
			c-0.069-0.053-0.131-0.114-0.214-0.151c-0.001,0-61.542-27.063-124.679-54.524c-31.569-13.731-63.536-27.561-88.412-38.16
			c-12.438-5.299-23.103-9.791-31.063-13.059c-3.98-1.634-7.284-2.963-9.799-3.935c-2.526-0.975-4.218-1.585-5.14-1.818
			c-2.76-0.69-5.223-0.967-7.393-0.967c-8.187-0.003-12.116,3.946-12.239,4.083l-1.012,1.045l72.266,39.042l-7.865,8.613
			l26.91,15.078c-0.075,0.06-0.152,0.119-0.228,0.179c-0.848,0.682-1.698,1.361-2.533,2.059c-0.507,0.424-0.973,0.887-1.433,1.358
			c-0.281,0.141-0.521,0.42-0.731,0.748c-0.116,0.119-0.23,0.239-0.348,0.356c-0.141,0.14-0.158,0.316-0.103,0.466
			c-0.113,0.231-0.214,0.445-0.306,0.611c-0.555,0.999-1.111,1.998-1.666,2.997c-0.378,0.68,0.244,1.449,0.983,1.279
			c2.565-0.588,5.098-1.493,7.551-2.438c1.973-0.76,3.973-1.573,5.875-2.534c0.132,0.156,0.355,0.237,0.574,0.111
			c0.1-0.058,0.194-0.125,0.294-0.183c0.094,0.122,0.21,0.228,0.355,0.304l62.959,33.032c-0.017,0.043-0.042,0.079-0.059,0.122
			l-0.1,0.069c-0.236,0.171-0.248,0.445-0.136,0.637c-0.126,0.442-0.232,0.891-0.342,1.297c-0.267,0.988-0.521,1.979-0.774,2.97
			c-0.507,1.982-0.957,3.982-1.417,5.976c-0.109,0.472,0.12,0.828,0.447,1.021c0.091,0.257,0.331,0.45,0.641,0.327
			c4.298-1.713,8.439-3.84,12.501-6.079c-0.086,0.468,0.122,0.953,0.568,1.18l33.534,17.018c0.263,0.177,1.514,1.021,3.302,2.232
			c3.023,2.048,7.559,5.13,11.335,7.741c1.887,1.305,3.586,2.493,4.804,3.37c0.608,0.438,1.098,0.8,1.421,1.051
			c0.16,0.124,0.281,0.224,0.337,0.274l0.026,0.024l0.003-0.003c0.178,0.219,0.432,0.36,0.728,0.392
			c-0.045,0.591-0.067,1.181-0.046,1.757c0.222,6.113,4.014,11.926,9.646,14.385c1.583,0.691,3.227,1.132,4.943,1.328
			c0.866,0.099,1.741,0.128,2.612,0.079c0.459-0.026,0.915-0.076,1.37-0.139c0.189-0.026,0.345-0.073,0.491-0.131
			c0.805,0.25,1.621,0.475,2.457,0.675c2.098,0.501,4.217,0.909,6.349,1.237c1.136,0.175,2.276,0.325,3.418,0.457
			c-0.191,0.588-0.327,1.19-0.488,1.798c-0.252,0.951-0.467,1.913-0.714,2.865c-0.485,1.866-1.064,3.707-1.708,5.525
			c-0.648,1.828-1.373,3.634-2.179,5.398c-0.693,1.517-1.468,3-2.128,4.531c-0.44-0.149-0.879-0.302-1.325-0.416
			c-0.314-0.08-0.568-0.005-0.757,0.144c-0.849-0.958-1.947-1.718-3.335-2.161c-5.019-1.604-9.916,1.836-12.345,6.022
			c-1.634,2.817-2.425,6.041-3.046,9.21c-0.311,1.588-0.574,3.304-0.047,4.878c0.279,0.832,0.737,1.609,1.41,2.116
			c0.385,0.633,0.88,1.206,1.489,1.672c2.063,1.576,4.869,1.771,7.284,0.97c2.559-0.848,4.606-2.641,6.225-4.752
			c0.663-0.865,1.271-1.795,1.838-2.751c0.445,0.287,0.899,0.609,1.361,0.928c-1.729,2.918-2.903,6.388-1.928,9.748
			c0.202,0.696,0.502,1.361,0.879,1.977l-14.088,0.169l-0.01,0c-0.461,0.013-0.93,0.02-1.406,0.02
			c-4.127,0.001-8.816-0.499-13.825-1.352c-0.014-0.134-0.089-0.258-0.241-0.293c-1.319-0.297-2.596-0.721-3.898-1.075
			c-1.304-0.354-2.599-0.745-3.875-1.189c-2.519-0.876-4.989-1.923-7.389-3.087c-4.795-2.327-9.291-5.296-13.284-8.827
			c-1.121-0.991-2.205-2.026-3.245-3.102c-1.008-1.042-2.003-2.345-3.304-3.029c-0.303-0.159-0.71,0.106-0.601,0.462
			c0.385,1.256,1.386,2.335,2.269,3.274c0.95,1.011,1.939,1.985,2.961,2.923c2.042,1.876,4.221,3.608,6.502,5.183
			c3.379,2.334,7.027,4.352,10.851,5.894c-0.285-0.073-0.567-0.139-0.853-0.213c-15.423-3.999-31.895-10.015-44.497-15.029
			c-6.302-2.507-11.637-4.763-15.396-6.392c-1.879-0.815-3.364-1.472-4.379-1.926c-0.037-0.017-0.062-0.028-0.097-0.044
			c0.587-0.064,1.173-0.139,1.757-0.233c0.568-0.092,1.132-0.195,1.696-0.304c0.282-0.054,0.563-0.109,0.845-0.163
			c0.315-0.061,0.657-0.085,0.926-0.273c0.435-0.305,0.451-1.102-0.161-1.23c-0.574-0.12-1.228,0.133-1.793,0.256
			c-0.581,0.127-1.161,0.255-1.739,0.399c-0.878,0.22-1.741,0.488-2.6,0.767c-0.144-0.579-0.338-1.4-0.519-2.299
			c-0.267-1.318-0.496-2.811-0.493-3.798c-0.002-0.344,0.031-0.618,0.067-0.759c1.589-0.724,4.335-2.098,4.342-2.101
			c0.345-0.172,0.54-0.504,0.582-0.861c8.07,4.066,13.25,6.675,13.25,6.675c0.544,0.274,1.206,0.055,1.48-0.488
			c0.274-0.544,0.055-1.206-0.488-1.48c0,0-0.408-0.205-1.172-0.59c-5.734-2.888-31.559-15.896-56.258-28.358
			c-12.349-6.231-24.417-12.325-33.551-16.949c-4.567-2.312-8.4-4.257-11.168-5.667c-1.299-0.662-2.353-1.201-3.147-1.609
			c1.668-0.312,4.185-0.577,6.447-0.77c1.32-0.114,2.561-0.207,3.527-0.28c0.484-0.037,0.898-0.069,1.222-0.096
			c0.208-0.018,0.361-0.033,0.499-0.048c0.097,0.03,0.251,0.078,0.443,0.145c1.144,0.391,3.661,1.34,7.147,2.686
			c12.215,4.715,36.45,14.348,57.625,22.799c10.588,4.226,20.412,8.157,27.589,11.031c3.589,1.437,6.515,2.61,8.545,3.424
			c2.03,0.814,3.159,1.267,3.162,1.268c0.565,0.227,1.206-0.047,1.433-0.612c0.227-0.565-0.047-1.207-0.612-1.434h0
			c0,0-1.63-0.654-4.481-1.797c1.212-0.569,2.416-1.147,3.614-1.744c0.613-0.305,1.228-0.607,1.839-0.916
			c0.323-0.164,1.485-0.555,1.179-1.11c-0.299-0.54-1.295,0.175-1.626,0.344c-0.609,0.31-1.215,0.629-1.822,0.944
			c-1.296,0.672-2.581,1.359-3.859,2.064c-0.051,0.028-0.088,0.063-0.115,0.1c-0.304-0.122-0.622-0.249-0.949-0.38
			c1.988-1.32,9.049-5.536,26.451-11.914c10.086-3.697,16.294-5.598,20.019-6.57c3.721-0.973,4.97-1.01,5.065-1.007h0.003v-0.005
			c0.596,0.025,1.107-0.425,1.147-1.024c0.04-0.607-0.42-1.132-1.027-1.172l-0.123-0.003c-0.42,0.003-1.795,0.082-5.622,1.079
			c-3.824,0.998-10.09,2.919-20.221,6.633c-21.644,7.937-27.556,12.592-27.696,12.701c-0.128,0.101-0.222,0.227-0.291,0.363
			c-9.726-3.897-26.478-10.602-43.324-17.311c-13.01-5.181-26.069-10.363-35.977-14.25c-4.954-1.944-9.12-3.564-12.102-4.699
			c-1.491-0.568-2.685-1.015-3.541-1.323c-0.428-0.154-0.77-0.273-1.032-0.358c-0.132-0.043-0.242-0.077-0.344-0.104l-0.16-0.039
			c-0.064-0.011-0.119-0.027-0.275-0.03l-0.083,0.003c-0.025,0.002-0.061,0.006-0.107,0.014l0-0.001
			c-0.005,0.001-0.112,0.015-0.253,0.028c-1.106,0.106-4.599,0.324-7.802,0.666c-1.607,0.172-3.143,0.372-4.331,0.618
			c-0.597,0.125-1.101,0.255-1.538,0.434c-0.22,0.093-0.427,0.192-0.652,0.374c-0.111,0.093-0.231,0.211-0.338,0.386
			c-0.106,0.173-0.193,0.418-0.192,0.68c-0.002,0.387,0.179,0.708,0.346,0.893c0.171,0.192,0.341,0.305,0.512,0.405l-0.002-0.001
			c0.116,0.066,0.294,0.16,0.574,0.307c4.276,2.234,30.861,15.663,56.402,28.546c12.903,6.508,25.53,12.872,34.87,17.578
			c-0.304,0.151-0.796,0.395-1.359,0.671c-0.932,0.457-2.056,0.998-2.78,1.322c-0.312,0.138-0.548,0.371-0.701,0.597
			c-0.229,0.346-0.322,0.683-0.386,1.022c-0.06,0.34-0.081,0.69-0.081,1.06c0.004,1.465,0.336,3.295,0.657,4.815
			c0.323,1.513,0.644,2.685,0.648,2.698l0.136,0.496l0.467,0.215c0.017,0.008,15.6,7.162,35.203,14.324
			c9.802,3.581,20.609,7.163,30.99,9.856c10.384,2.691,20.332,4.498,28.485,4.501c0.49,0,0.974-0.007,1.451-0.02v0l15.907-0.191
			c0.073-0.001,0.136-0.03,0.205-0.044c1.351,0.849,2.982,1.067,4.549,0.769c1.79-0.34,3.233-1.291,4.449-2.523
			c0.02,0.052,0.025,0.101,0.053,0.155c0.159,0.305,0.583,0.578,0.936,0.537c1.799-0.207,3.592-0.453,5.385-0.701
			c0.66-0.092,1.337-0.193,2.009-0.318c0.935-0.112,1.87-0.224,2.803-0.362c2.274-0.337,4.548-0.668,6.819-1.022
			c4.538-0.708,9.089-1.359,13.618-2.119c2.791-0.468,5.581-0.946,8.372-1.417c0.658,0.902,2.008,2.324,4.599,3.697
			c4.037,2.144,11.036,4.191,23.146,4.193c6.234,0,13.83-0.546,23.078-1.906c2.002,0.753,3.995,1.526,6.019,2.222
			c2.464,0.847,4.932,1.682,7.399,2.519c4.977,1.69,9.939,3.425,14.928,5.08c2.818,0.935,5.643,1.847,8.467,2.763
			c0.006,0.002,0.01,0,0.016,0.002c0.004,0.09,0.007,0.18,0.011,0.27c0.042,1.055,0.147,2.085,0.271,3.116
			c-0.188,0.529-0.288,1.099-0.414,1.638l-0.529,2.256c-0.373,1.594-0.697,3.198-1.058,4.795c-0.641,2.834-1.274,5.661-1.806,8.515
			c-0.593,0.022-1.024,0.652-0.602,1.17c-0.129,0.06-0.245,0.155-0.305,0.315c-0.062,0.166-0.09,0.347-0.124,0.525
			c-0.514-3.886-4.875-5.836-8.51-4.987c-4.578,1.069-7.402,5.261-8.868,9.439c-0.785,2.236-1.377,4.6-1.695,6.949
			c-0.318,2.342-0.251,4.787,0.85,6.932c1.568,3.054,5.111,4.499,8.434,4.233c0.099,0.058,0.223,0.082,0.365,0.048
			c0.177-0.043,0.346-0.102,0.518-0.156c0.246-0.043,0.491-0.095,0.732-0.158c2.25-0.588,4.143-2.071,5.517-3.912
			c0.139-0.186,0.272-0.39,0.405-0.592c-0.071,0.25-0.156,0.501-0.213,0.747c-0.432,1.875-0.462,3.868,0.265,5.674
			c0.639,1.586,1.74,3.058,3.282,3.862c1.691,0.881,3.616,0.829,5.337,0.058c1.793-0.802,3.24-2.254,4.48-3.741
			c1.332-1.597,2.56-3.301,3.472-5.176c1.777-3.655,2.321-7.837,0.684-11.652c-0.846-1.973-2.333-3.524-4.301-4.418
			c-1.191-0.541-2.731-0.957-4.12-0.794c0.015-0.087,0.025-0.174,0.038-0.261c0.16-0.123,0.301-0.28,0.387-0.492
			c1.274-3.13,2.373-6.333,3.609-9.479c0.602-1.532,1.204-3.065,1.807-4.597c0.072-0.182,0.14-0.366,0.211-0.549l0.006-0.002
			c2.553-1.568,5.036-3.15,7.254-5.115c0.148,0.162,0.331,0.294,0.562,0.345l26.892,5.88c-0.293,0.876-0.53,1.762-0.662,2.684
			c-0.35,2.43-0.194,4.871,0.553,7.219c1.45,4.553,4.974,8.166,9.344,10.023c1.224,0.52,2.494,0.911,3.807,1.126
			c1.281,0.21,2.779,0.467,3.968-0.197c0.143-0.08,0.236-0.219,0.302-0.373c2.514,1.666,5.47,2.463,8.432,2.867
			c3.306,0.451,6.664,0.582,9.993,0.771c3.509,0.2,7.022,0.355,10.536,0.376c6.632,0.039,13.313-0.435,19.77-2.024
			c2.986-0.735,5.907-1.727,8.721-2.969c0.114,0.261,0.327,0.478,0.613,0.588l55.282,21.246c-0.216,1.101-0.452,2.33-0.676,3.587
			c-0.494,2.793-0.931,5.661-0.935,7.582c0.003,0.586,0.033,1.083,0.169,1.567c0.074,0.242,0.171,0.496,0.398,0.761
			c0.114,0.13,0.267,0.26,0.459,0.353c0.19,0.094,0.412,0.143,0.618,0.142c0.253,0,0.472-0.065,0.65-0.146
			c0.18-0.082,0.327-0.181,0.463-0.289c0.429-0.345,0.88-0.795,1.38-1.339c1.736-1.894,4.026-4.945,5.911-7.549
			c1.253-1.732,2.306-3.242,2.88-4.07l5.133,1.61c0.414,0.13,0.84-0.005,1.12-0.298l0.907,0.527l0.558-0.335
			c0.102-0.062,0.39-0.256,0.661-0.66c0.272-0.401,0.502-1.015,0.498-1.78C626.396,380.082,626.185,379.176,625.664,378.088z
			 M568.756,345.915c5.403,3.086,18.934,10.843,31.261,18.146c6.163,3.651,12.026,7.189,16.413,9.967
			c2.193,1.388,4.017,2.588,5.314,3.506c0.647,0.458,1.163,0.848,1.512,1.141c0.174,0.146,0.307,0.268,0.385,0.349l0.055,0.061
			c0.378,0.802,0.485,1.355,0.493,1.705l-12.962-7.529l-45.728-26.563c-0.006-0.004-0.014-0.003-0.02-0.007
			c0.358-0.68,0.691-1.373,0.99-2.081C566.766,344.78,567.557,345.23,568.756,345.915z M527.925,303.286
			c1.315,1.141,1.753,2.971,1.641,4.649c-0.137,2.064-1.123,4.046-2.163,5.797c-0.969,1.632-2.292,3.202-4.172,3.772
			c-1.875,0.569-4.227-0.202-4.78-2.245l-0.018-0.037c0.265-0.208,0.523-0.426,0.771-0.658c1.184,1.223,2.977,0.578,4.146-0.359
			c1.333-1.069,2.382-2.475,2.966-4.083c0.561-1.542,0.551-3.207-0.101-4.718c-0.284-0.657-0.931-1.664-1.709-2.255
			c0.082-0.191,0.139-0.397,0.189-0.584C525.841,302.384,526.937,302.429,527.925,303.286z M506.341,282.719
			c0.718,0.312,1.745,0.188,2.448,0.209c1.032,0.031,2.102-0.093,3.12-0.272c2.051-0.36,4.182-0.953,6.018-1.956
			c0.106-0.058,0.187-0.143,0.263-0.232c0.458,0.236,0.927,0.454,1.393,0.664c0.137,0.062,0.278,0.117,0.415,0.178
			c-0.23,1.328-0.001,2.806,0.066,4.134c0.076,1.499,0.153,2.998,0.229,4.497c0.074,1.454,0.142,2.908,0.222,4.361
			c0.043,0.773,0.098,1.545,0.148,2.317c0.02,0.303,0.032,0.598,0.064,0.886c-0.648-0.341-1.364-0.522-2.092-0.613
			c-1.765-0.222-3.579,0.225-5.08,1.175c-2.62,1.658-4.555,4.69-5.456,7.762c-1.387-0.909-7.252-4.74-13.427-8.577
			c-3.535-2.196-7.17-4.393-10.138-6.051c-1.485-0.83-2.802-1.524-3.874-2.023c-0.124-0.058-0.234-0.103-0.352-0.156
			c0.224-0.117,0.456-0.234,0.715-0.35c2.205-1.011,5.57-2.062,9.331-3.038c0.327-0.085,0.666-0.168,0.998-0.251
			C496.35,284.495,501.345,283.607,506.341,282.719z M478.272,290.589c0.099,0.028,0.213,0.064,0.346,0.114
			c0.636,0.233,1.604,0.687,2.762,1.293c4.071,2.126,10.549,6.107,15.98,9.542c2.718,1.719,5.179,3.303,6.959,4.457
			c0.89,0.577,1.611,1.047,2.108,1.372c0.498,0.325,0.771,0.505,0.771,0.505c0.133,0.087,0.277,0.139,0.425,0.163
			c-0.196,1.628,0.036,3.333,0.692,4.816l-32.777-19.817C476.712,292.15,477.601,291.332,478.272,290.589z M509.042,309.431
			c-0.043-3.23,1.695-6.701,4.07-8.845c1.233-1.113,2.771-1.895,4.447-1.967c0.766-0.033,1.485,0.066,2.216,0.294
			c0.353,0.11,0.7,0.222,1.03,0.391l0.03,0.014c0.15,0.525,0.361,1.029,0.523,1.57c0.263,0.881,0.439,1.792,0.509,2.708
			c0.133,1.728-0.083,3.406-0.679,5.034c-0.573,1.562-1.488,3.012-2.638,4.212c-1.097,1.146-2.514,2.273-4.153,2.43
			C511.186,315.581,509.08,312.287,509.042,309.431z M523.654,304.881c0.365,0.32,0.675,0.706,0.908,1.13
			c0.571,1.035,0.672,2.232,0.38,3.368c-0.323,1.253-1.109,2.361-2.027,3.253c-0.734,0.712-1.938,1.689-2.992,1.198
			c0.764-0.838,1.417-1.756,1.917-2.642C522.926,309.259,523.525,307.088,523.654,304.881z M525.645,284.392
			c-0.103,0.727-0.206,1.454-0.31,2.181c-0.207,1.455-0.401,2.912-0.599,4.368c-0.196,1.441-0.375,2.883-0.548,4.327
			c-0.154,1.292-0.163,2.541-0.141,3.825l-0.189,0.093c-0.307,0.238-0.224,0.832-0.241,1.182c-0.008,0.153-0.022,0.305-0.039,0.457
			l-0.273,0.218c-0.21-0.91-0.496-1.929-1.08-2.678c0.198-0.517,0.164-1.021,0.124-1.61c-0.052-0.772-0.1-1.545-0.157-2.317
			c-0.111-1.5-0.242-2.998-0.364-4.497c-0.118-1.454-0.235-2.907-0.353-4.361c-0.063-0.772-0.117-1.546-0.19-2.317
			c-0.045-0.48-0.078-0.986-0.165-1.474c1.527,0.638,3.084,1.209,4.663,1.705C525.723,283.781,525.689,284.081,525.645,284.392z
			 M597.19,201.906c2.028,2.09,3.252,3.688,3.826,4.406c0.31,0.386,0.754,0.862,1.325,1.466c0.397,0.419,0.866,0.911,1.367,1.441
			c-2.52,0.117-5.033,0.206-7.566,0.133c-3.254-0.094-6.507-0.354-9.731-0.802c-6.569-0.911-13.03-2.505-19.268-4.757
			c-3.029-1.094-5.951-2.52-8.978-3.616c0.683-1.888,1.441-3.819,2.676-5.417c1.454-1.88,3.456-2.765,5.83-2.614
			c2.828,0.18,5.638,1.286,8.341,2.07c2.887,0.838,5.773,1.694,8.675,2.478c1.629,0.44,3.258,0.865,4.9,1.254
			c1.69,0.4,3.415,0.641,5.107,1.021c0.14,0.031,0.257,0.006,0.35-0.049C595.247,199.978,596.299,200.989,597.19,201.906z
			 M141.71,172.984c-2.34,1.074-4.629,2.211-7.036,3.139c-1.8,0.694-3.628,1.266-5.465,1.83c0.217-0.47,0.433-0.94,0.65-1.409
			c0.199-0.431,0.562-1.027,0.751-1.607c0.612-0.34,1.22-0.685,1.792-1.089c0.926-0.654,1.838-1.327,2.75-1.999
			c1.792-1.319,3.56-2.672,5.335-4.013c1.778-1.343,3.537-2.71,5.301-4.071c0.863-0.666,1.727-1.331,2.585-2.002l1.288-1.008
			c0.467-0.365,0.963-0.65,1.119-1.231c0.591,0.062,1.192,0.078,1.733,0.095c1.131,0.035,2.263,0.042,3.395,0.064
			c1.335,0.025,2.671,0.035,4.006,0.051l-0.191,0.157c-0.479,0.398-1.102,0.836-1.55,1.349c-0.119,0.09-0.237,0.18-0.355,0.27
			c-0.803,0.611-1.607,1.223-2.411,1.834c-1.607,1.223-3.214,2.447-4.816,3.677c-2.613,2.006-5.291,3.971-7.756,6.165l-0.229-0.203
			C142.34,172.788,141.983,172.859,141.71,172.984z M204.65,219.12c0.37-1.688,0.741-3.376,1.07-5.072
			c0.195-1.008,0.392-2.015,0.572-3.026c0.114-0.641,0.289-1.381,0.348-2.086c0.03-0.017,0.059-0.036,0.089-0.053
			c0.255-0.046,0.48-0.181,0.65-0.39c2.28-1.346,4.528-2.746,6.774-4.148c1.353-0.845,2.699-1.702,4.047-2.555
			c0.692-0.438,1.388-0.877,2.095-1.291c0.518-0.303,1.021-0.541,1.416-0.93c3.362-0.744,6.704-1.548,10.04-2.406
			c3.451-0.888,6.946-1.638,10.368-2.632c0.146-0.042,0.264-0.108,0.361-0.187l0.218,0.028l-0.027-0.012l0.039,0.014l0.007,0.001
			l0.039,0.004l0.003,0.003l0.009,0.006l0.019,0.004l-0.013,0l0.064,0.041l0.003,0.004l0.006,0.004l0.002,0.004l0.021,0.085
			l0.003,0.18l0.017,0.18l-0.037,0.139l-0.036,0.102l-0.025,0.051c-0.014,0.022-0.171,0.263-0.095,0.16l-0.17,0.197l-0.238,0.221
			c-0.126,0.019-0.257,0.066-0.39,0.164c-2.399,1.751-4.783,3.522-7.176,5.28c-1.198,0.88-2.372,1.788-3.661,2.535
			c-0.629,0.364-1.325,0.575-1.94,0.957c-0.647,0.403-1.279,0.832-1.921,1.243c-4.96,3.177-10.025,6.188-15.162,9.07
			C209.579,216.386,207.099,217.725,204.65,219.12z M271.469,247.612L271.469,247.612l-0.012,0.008L271.469,247.612z
			 M271.532,247.715l0.004-0.004l0,0L271.532,247.715z M271.336,244.796c-1.951-1.415-5.303-3.734-8.702-6.063
			c0.11-0.072,0.222-0.14,0.328-0.219c0.408-0.307,0.793-0.636,1.18-0.969c0.789-0.678,1.547-1.396,2.301-2.113
			c0.734-0.697,1.482-1.382,2.203-2.092c0.373-0.367,0.69-0.746,0.927-1.214c0.217-0.43,0.545-0.801,0.713-1.254
			c0.065-0.174-0.133-0.357-0.302-0.302c-0.437,0.141-0.797,0.439-1.211,0.634c-0.485,0.229-0.88,0.503-1.277,0.868
			c-0.765,0.703-1.495,1.45-2.24,2.173c-0.725,0.704-1.455,1.41-2.145,2.15c-0.346,0.372-0.693,0.74-1.014,1.133
			c-0.147,0.179-0.278,0.369-0.408,0.559c-5.189-3.548-10.198-6.922-10.202-6.925l-0.056-0.038l-0.564-0.286
			c0.909-0.621,1.711-1.447,2.511-2.176c1.092-0.994,2.184-1.989,3.275-2.983c1.063-0.968,2.182-1.87,3.253-2.831
			c1.025-0.921,2.266-1.75,2.799-3.056c0.122-0.3-0.234-0.6-0.514-0.514c-1.31,0.402-2.232,1.56-3.208,2.473
			c-1.078,1.009-2.1,2.072-3.185,3.073c-1.055,0.974-2.109,1.947-3.164,2.92c-0.901,0.832-1.91,1.652-2.646,2.648l-32.214-16.348
			c-0.031-0.016-0.065-0.014-0.097-0.027c0.621-0.347,1.24-0.696,1.858-1.046c2.582-1.461,5.124-2.99,7.637-4.566
			c1.261-0.791,2.713-1.523,3.793-2.551c1.057-1.005,2.286-1.778,3.52-2.549c2.869-1.793,5.662-3.726,8.357-5.772
			c0.188-0.142,0.285-0.324,0.34-0.512c0.567-0.406,1.039-0.891,1.353-1.52c0.371-0.405,0.381-1.135,0.263-1.624
			c-0.1-0.414-0.341-0.804-0.669-1.077c-0.385-0.32-0.851-0.513-1.355-0.534c-0.364-0.015-0.745,0.139-1.016,0.396l-0.153,0.007
			c-3.459,0.855-6.859,1.957-10.289,2.918c-3.105,0.87-6.191,1.789-9.266,2.756c-0.099-0.123-0.234-0.216-0.421-0.207
			c-0.846,0.042-1.334,0.463-2.006,0.941c-0.668,0.476-1.358,0.927-2.045,1.376c-1.373,0.9-2.753,1.79-4.123,2.696
			c-2.018,1.335-4.031,2.675-6.021,4.049c-0.098-0.145-0.22-0.275-0.386-0.362L144.2,173.867c2.584-1.706,5.031-3.634,7.503-5.487
			c1.615-1.21,3.225-2.427,4.835-3.645c0.768-0.581,1.537-1.162,2.305-1.743c0.403-0.304,0.805-0.609,1.208-0.913
			c0.189-0.142,0.463-0.298,0.625-0.472l0.176-0.28c0.789-0.56,1.572-1.13,2.358-1.694c0.791-0.568,0.553-1.866-0.512-1.889
			c-2.262-0.049-4.526-0.066-6.789-0.079c-1.131-0.007-2.264-0.031-3.395-0.02c-1.043,0.01-2.309,0-3.297,0.356
			c-0.387,0.139-0.486,0.502-0.369,0.802c-0.105,0.082-0.211,0.168-0.325,0.255c-0.435,0.329-0.87,0.658-1.304,0.987
			c-0.906,0.686-1.807,1.378-2.709,2.07c-1.766,1.356-3.537,2.706-5.29,4.08c-1.052,0.825-2.1,1.654-3.151,2.48
			c-0.014-0.009-0.022-0.023-0.036-0.031h0l-22.643-12.686c0.314-0.262,0.63-0.521,0.934-0.795c0.465-0.419,0.92-0.848,1.365-1.288
			c0.432-0.427,0.858-0.861,1.288-1.292c0.221-0.221,0.445-0.439,0.667-0.659c0.296-0.293,0.59-0.584,0.599-1.026
			c0.007-0.344-0.312-0.689-0.667-0.667c-0.699,0.043-1.163,0.798-1.604,1.274c-0.425,0.459-0.854,0.915-1.276,1.378
			c-0.411,0.451-0.811,0.91-1.201,1.378c-0.331,0.398-0.639,0.813-0.959,1.219l-1.743-0.976l7.894-8.646l-71.98-38.888
			c1.562-1.011,4.641-2.477,9.435-2.48c1.982,0,4.263,0.252,6.858,0.901c0.673,0.165,2.399,0.775,4.88,1.736
			c9.353,3.616,29.922,12.286,55.48,23.245c38.342,16.44,87.938,38.039,127.948,55.528c20.005,8.744,37.613,16.461,50.221,21.992
			c6.304,2.765,11.357,4.984,14.834,6.512c1.235,0.542,2.26,0.993,3.083,1.354c-0.151,0.041-0.305,0.076-0.457,0.118
			c-1.943,0.535-3.864,1.139-5.767,1.793c-0.045-0.033-0.076-0.082-0.129-0.105c-6.33-2.69-12.672-5.353-19.016-8.01
			c-6.33-2.651-12.634-5.426-19.041-7.886c-1.749-0.672-3.484-1.382-5.232-2.055c-1.83-0.704-3.703-1.284-5.537-1.975
			c-0.376-0.142-0.641,0.48-0.275,0.653c1.566,0.742,3.094,1.557,4.652,2.315c1.52,0.739,3.075,1.409,4.612,2.112
			c3.08,1.41,6.19,2.751,9.298,4.1c6.262,2.718,12.534,5.414,18.806,8.11c0.011,0.005,0.023,0.01,0.034,0.014
			c-0.516,0.213-1.021,0.463-1.528,0.691c-0.915,0.412-1.801,0.864-2.703,1.302c-1.839,0.893-3.643,1.846-5.468,2.765
			c-1.786,0.899-3.671,1.633-5.5,2.441c-1.919,0.847-3.824,1.702-5.706,2.627c-0.397,0.195-0.117,0.885,0.305,0.724
			c1.916-0.732,3.798-1.523,5.682-2.332c1.918-0.824,3.822-1.758,5.786-2.465c1.921-0.692,3.836-1.382,5.741-2.119
			c0.934-0.361,1.866-0.706,2.79-1.095c0.504-0.212,1.01-0.421,1.512-0.637c0.532-0.229,0.902-0.475,1.355-0.826
			c0.032-0.025,0.045-0.053,0.071-0.079c2.186,0.934,4.373,1.866,6.562,2.793c-5.382,2.043-10.583,4.55-15.537,7.498
			c-2.131,1.268-4.215,2.617-6.252,4.031c-1.036,0.719-2.052,1.466-3.055,2.23c-0.976,0.742-1.996,1.446-2.761,2.412
			c-0.242,0.305,0.05,0.715,0.417,0.541c0.165-0.078,0.32-0.17,0.477-0.259c-0.343,0.408-0.662,0.811-0.96,1.228
			c-0.081-0.144-0.211-0.263-0.425-0.272c-1.424-0.06-2.964,0.845-4.101,1.633c-1.266,0.877-2.329,1.957-3.271,3.169
			c-1.076,1.384-1.788,3.07-2.195,4.824C272.309,245.509,271.881,245.191,271.336,244.796z M283.694,262.725
			c-2.502-0.857-4.81-2.426-6.453-4.504c-3.341-4.227-4.209-10.401-1.62-15.216c0.751-1.397,1.676-2.598,2.916-3.596
			c0.569-0.458,1.189-0.845,1.829-1.194c0.516-0.282,1.08-0.502,1.597-0.786c-0.098,0.171-0.198,0.339-0.29,0.52
			c-0.508,0.998-0.915,2.051-1.248,3.119c-0.688,2.205-1.084,4.537-1.071,6.849c0.025,4.47,1.419,8.838,4.006,12.49
			c0.718,1.015,1.513,1.979,2.384,2.867C285.049,263.137,284.363,262.955,283.694,262.725z M297.994,264.591
			c-1.226-0.072-2.452-0.142-3.678-0.211c-0.713-0.158-1.423-0.321-2.133-0.479c0.459,0.04,0.919,0.074,1.385,0.086
			c1.445,0.04,2.889,0.064,4.334,0.059c2.844-0.009,5.687-0.077,8.529-0.217c2.791-0.137,5.637-0.222,8.401-0.661
			c0.645-0.102,1.264-0.284,1.884-0.484c0.834-0.269,1.667-0.312,2.54-0.331c0.729-0.016,1.426,0.048,2.153-0.029
			c0.661-0.07,1.326-0.169,1.964-0.361c0.338-0.101,0.268-0.596-0.082-0.609c-0.666-0.025-1.335,0.042-1.995,0.132
			c-0.718,0.098-1.385,0.314-2.096,0.455c-0.865,0.171-1.684,0.286-2.557,0.184c-0.656-0.076-1.308-0.138-1.969-0.127
			c-2.792,0.046-5.588,0.355-8.378,0.488c-2.796,0.133-5.594,0.227-8.393,0.267c-1.445,0.021-2.889,0.042-4.334,0.049
			c-1.453,0.007-2.884,0.159-4.333,0.206c-0.209,0.007-0.29,0.168-0.269,0.32c-0.151-0.018-0.3-0.046-0.452-0.061
			c-0.329-0.31-0.671-0.61-1.009-0.932c-0.723-0.691-1.401-1.432-2.02-2.218c-1.242-1.577-2.277-3.37-3.025-5.233
			c-1.574-3.917-2.009-8.356-1.079-12.485c0.539-2.396,1.507-4.758,2.608-6.947c0.088-0.174-0.06-0.374-0.221-0.381
			c0.721-0.433,1.379-0.96,2.067-1.457c0.86-0.622,1.73-1.229,2.61-1.823c1.794-1.212,3.616-2.375,5.485-3.467
			c3.706-2.167,7.561-4.09,11.515-5.763c7.97-3.372,16.384-5.847,24.964-7.047c2.359-0.33,4.753-0.517,7.139-0.487
			c-1.032,0.481-2.03,1.032-2.961,1.688c-2.234,1.575-4.166,3.577-5.656,5.869c-3.268,5.028-4.166,11.205-3.122,17.055
			c0.624,3.499,1.952,7.022,4.128,9.848c0.518,0.673,1.58,0.113,1.167-0.682c-1.378-2.658-2.634-5.361-3.369-8.275
			c-0.709-2.811-0.968-5.712-0.664-8.599c0.556-5.28,3.276-10.245,7.382-13.603c1.134-0.927,2.385-1.718,3.704-2.353
			c0.598-0.288,1.222-0.505,1.848-0.717c0.086,0.147,0.217,0.261,0.405,0.287c0.665,0.09,1.336,0.115,2.007,0.124
			c-1.618,0.544-3.161,1.307-4.583,2.257l-0.228-0.025c-0.261-0.033-0.417,0.236-0.393,0.469c-1.174,0.853-2.261,1.829-3.221,2.928
			c-3.654,4.181-5.246,9.708-4.602,15.207c0.355,3.031,1.428,6.162,3.382,8.539c0.207,0.252,0.552-0.069,0.426-0.329
			c-1.161-2.389-2.03-4.77-2.43-7.406c-0.391-2.577-0.231-5.231,0.451-7.746c1.144-4.215,3.752-7.842,7.272-10.359
			c0.116,0.058,0.229,0.121,0.348,0.174c0.528,0.232,1.045,0.478,1.553,0.75c0.998,0.532,1.965,1.128,2.846,1.84
			c1.694,1.37,3.155,3.034,4.241,4.924c1.184,2.06,1.879,4.356,2.125,6.715c0.128,1.228,0.137,2.466,0.017,3.695
			c-0.118,1.201-0.299,2.408-0.277,3.618c0.009,0.501,0.623,0.614,0.89,0.241c1.214-1.695,1.39-3.919,1.355-5.939
			c-0.037-2.091-0.438-4.167-1.177-6.123c-1.373-3.633-3.819-6.692-7.03-8.871c-0.873-0.592-1.795-1.115-2.765-1.53
			c-0.272-0.117-0.548-0.229-0.826-0.335l0.284-0.183c0.266-0.154,0.543-0.292,0.817-0.435c0.363,0.081,0.72,0.185,1.034,0.29
			c0.74,0.247,1.436,0.63,2.105,1.027c1.201,0.713,2.283,1.579,3.272,2.564c0.959,0.956,1.808,1.999,2.553,3.13
			c0.744,1.13,1.256,2.504,2.221,3.472c0.238,0.24,0.622,0.052,0.639-0.265c0.081-1.49-0.857-2.956-1.661-4.136
			c-0.867-1.271-1.896-2.444-3.059-3.451c-1.13-0.978-2.383-1.84-3.706-2.538c-0.605-0.319-1.241-0.605-1.899-0.804
			c0.586-0.249,1.184-0.469,1.789-0.668c3.889,1.369,7.438,3.62,9.967,6.927c1.406,1.838,2.455,3.944,3.102,6.164
			c0.662,2.271,0.824,4.626,0.986,6.975c0.037,0.542,0.864,0.725,0.998,0.135c0.858-3.791-0.272-7.949-2.068-11.317
			c-1.755-3.292-4.445-6.016-7.68-7.867c-1.079-0.617-2.197-1.097-3.355-1.464l0.181-0.127c0.105-0.022,0.212-0.037,0.318-0.058
			c0.138,0.005,0.277,0.008,0.415,0.023c2.112,0.226,4.242,0.786,6.169,1.682c3.656,1.7,6.515,4.55,8.339,8.135
			c1.744,3.428,2.469,7.374,2.244,11.203c-0.166,2.828-0.933,5.579-2.107,8.148c-0.505,0.636-0.877,1.379-1.289,2.081
			c-0.459,0.782-0.966,1.533-1.549,2.228c-1.236,1.473-2.712,2.719-4.378,3.68c-3.728,2.149-8.344,2.585-12.524,1.738
			c-0.536-0.109-0.716,0.608-0.222,0.805c3.985,1.59,8.422,1.265,12.289-0.501c-0.198,0.123-0.393,0.249-0.585,0.37
			c-0.699,0.439-1.417,0.84-2.17,1.181c-1.494,0.677-3.085,1.142-4.707,1.384c-3.21,0.479-6.809,0.078-9.777-1.263
			c-0.499-0.226-0.934,0.465-0.439,0.751c3.033,1.75,6.376,2.507,9.853,2.225l-0.233,0.101c-1.94,0.833-3.916,1.588-5.917,2.26
			c-4.055,1.361-8.212,2.412-12.425,3.15c-6.708,1.175-13.576,1.521-20.38,1.084c2.037-0.012,4.075-0.059,6.11-0.158
			c1.257-0.061,2.513-0.14,3.767-0.237c1.194-0.093,2.569-0.149,3.649-0.711c0.245-0.127,0.176-0.504-0.075-0.574
			c-1.165-0.326-2.522-0.121-3.708-0.028c-1.299,0.101-2.6,0.184-3.901,0.246c-2.513,0.119-5.031,0.15-7.547,0.12
			C303.022,264.834,300.505,264.739,297.994,264.591z M299.726,284.106c0.905-1.784,1.714-3.61,2.428-5.479
			c0.704-1.84,1.3-3.72,1.808-5.624c0.254-0.951,0.497-1.909,0.659-2.881c0.123-0.738,0.268-1.483,0.284-2.229
			c1.503,0.149,3.008,0.266,4.516,0.334c-1.998,3.29-3.458,6.944-4.785,10.541c-1.389,3.766-2.539,7.609-3.442,11.52
			c-1.23-0.806-2.555-1.509-3.932-2.06C298.216,286.946,299.006,285.524,299.726,284.106z M291.912,302.393
			c-1.189,1.951-2.623,3.862-4.544,5.149c-0.264,0.177-0.542,0.341-0.828,0.494c0.586-0.479,1.134-1.007,1.63-1.569
			c0.779-0.882,1.755-1.872,1.912-3.085c0.019-0.145-0.157-0.193-0.259-0.149c-0.989,0.43-1.572,1.439-2.266,2.217
			c-0.764,0.857-1.585,1.68-2.545,2.319c-0.902,0.6-2.016,1.076-3.155,1.27c-0.495-0.057-0.985-0.159-1.458-0.345
			c-0.692-0.272-1.333-0.71-1.88-1.247l-0.138-0.151l-0.104-0.093c-0.924-1.018-1.496-2.352-1.365-3.719
			c0.023-0.237-0.167-0.373-0.368-0.389c0.043-0.78,0.188-1.562,0.342-2.314c0.495-2.402,1.069-4.832,2.1-7.069
			c1.745-3.782,5.191-7.416,9.706-6.985c2.081,0.199,3.928,1.259,4.999,3.075c1.049,1.779,1.312,3.942,0.964,5.958
			C294.243,298.146,293.162,300.343,291.912,302.393z M294.161,302.001c0.702-1.287,1.293-2.633,1.719-4.01
			c0.838-2.705,0.792-5.876-0.384-8.41c1.984,0.753,3.874,1.647,5.647,2.855c0.731,0.499,1.465,1.079,2.039,1.747
			c-0.141,0.502,0.133,1.049,0.751,1.14c0.322,0.721,0.416,1.529,0.13,2.441c-0.249,0.793-0.68,1.54-1.143,2.252l-0.125,0.138
			c-0.069,0.104-0.122,0.215-0.179,0.324c-0.106,0.156-0.212,0.314-0.317,0.467c-0.639,0.933-1.436,1.944-2.522,2.384
			c-1.05,0.425-2.009,0.196-2.967-0.315C295.918,302.536,295.154,302.068,294.161,302.001z M300.984,304.359
			c-0.671,1.293-1.47,2.526-2.402,3.646c-0.584,0.702-1.982,2.366-2.63,0.786c-0.293-0.713,0.021-1.561,0.255-2.246
			c0.204-0.599,0.393-1.193,0.489-1.814c0.664,0.306,1.364,0.493,2.12,0.438C299.638,305.109,300.353,304.805,300.984,304.359z
			 M301.351,316.263c-1.321,0.527-2.867,0.697-4.17,0.029c-0.134-0.069-0.248-0.166-0.373-0.247
			c-0.14-0.275-0.389-0.471-0.692-0.553c-0.592-0.58-1.053-1.297-1.346-2.072c-0.584-1.546-0.555-3.101-0.255-4.642
			c0.15,1.18,1.026,2.258,2.299,2.24c1.422-0.02,2.448-1.322,3.249-2.339c0.889-1.129,1.678-2.329,2.335-3.608
			c0.368-0.718,0.695-1.457,0.987-2.209c0.266-0.686,0.533-1.383,0.561-2.119c0.995-1.592,1.983-3.378,1.696-5.29l-0.031-0.137
			l0.228,0.012c0.685,0.082,1.336,0.368,1.909,0.74c1.188,0.769,2.017,2.063,2.354,3.424c0.838,3.383-0.882,6.755-2.477,9.628
			C306.101,311.864,304.439,315.031,301.351,316.263z M350.68,312.345c-1.489-0.792-2.46-1.563-3.091-2.182
			c5.453-0.923,10.906-1.842,16.358-2.769c2.532-0.431,5.065-0.861,7.597-1.292c2.565-0.436,5.142-0.921,7.606-1.775
			c0.635-0.22,0.561-1.211-0.164-1.209c-4.558,0.012-9.108,1.059-13.587,1.819c-4.522,0.768-9.045,1.535-13.567,2.303
			c-9.086,1.542-18.157,3.144-27.221,4.81c-2.523,0.464-5.042,0.939-7.561,1.423c-0.47,0.09-0.935,0.196-1.402,0.292
			c-1.446-0.206-2.962-0.081-4.393,0.057c-1.638,0.158-3.275,0.321-4.91,0.513c0.844-1.118,1.573-2.339,2.242-3.501
			c2.003-3.478,4.002-7.238,3.395-11.39c-0.305-2.079-1.226-3.92-2.972-5.142c-1.12-0.784-2.932-1.449-4.398-1.122
			c-0.547-0.704-1.243-1.314-1.954-1.858l0.031-0.072c0.859-4.051,1.941-8.061,3.29-11.978c0.738-2.146,1.593-4.24,2.458-6.331
			c2.012,2.078,4.185,3.992,6.264,6.001c1.133,1.094,2.294,2.157,3.468,3.206c0.571,0.51,1.141,1.02,1.712,1.53
			c0.573,0.512,1.087,1.071,1.917,0.822c0.159-0.048,0.337-0.188,0.364-0.364c0.124-0.81-0.275-1.185-0.856-1.692
			c-0.611-0.533-1.228-1.06-1.842-1.59c-1.231-1.062-2.48-2.1-3.746-3.119c-2.315-1.865-4.559-3.822-6.954-5.585
			c0.534-1.291,1.067-2.582,1.574-3.886c0.926,0.031,1.853,0.055,2.78,0.053c8.752-0.015,17.524-1.347,25.877-3.967
			c1.558-0.489,3.097-1.036,4.626-1.61c0.156,0.174,0.325,0.34,0.485,0.505c0.413,0.426,0.847,0.831,1.277,1.24
			c0.86,0.819,1.742,1.612,2.614,2.419c1.742,1.613,3.511,3.205,5.291,4.775c0.432,0.381,1.084,0.426,1.51,0
			c0.379-0.379,0.445-1.139,0-1.51c-1.832-1.524-3.681-3.037-5.551-4.514c-0.906-0.715-1.797-1.447-2.711-2.152
			c-0.467-0.36-0.928-0.73-1.405-1.076c-0.075-0.055-0.154-0.116-0.233-0.175c0.319-0.126,0.643-0.239,0.961-0.368
			c2.306-0.942,4.567-1.92,6.6-3.374l0.109-0.114c0.454-0.264,0.902-0.54,1.319-0.855c0.881-0.665,1.724-1.386,2.533-2.136
			c1.65-1.531,3.142-3.225,4.445-5.061c1.975-2.784,3.491-5.939,4.339-9.258c2.091,0.866,4.159,1.774,6.271,2.593
			c2.208,0.856,4.43,1.678,6.651,2.501c2.22,0.822,4.436,1.654,6.664,2.454c1.113,0.4,2.226,0.799,3.34,1.199
			c1.013,0.364,2.242,0.96,3.341,0.835c0.553-0.062,0.897-0.687,0.469-1.132c-0.76-0.79-2.031-1.118-3.037-1.479
			c-1.113-0.4-2.227-0.799-3.34-1.199c-2.268-0.814-4.547-1.597-6.824-2.388c-2.232-0.775-4.464-1.555-6.708-2.296
			c-2.188-0.723-4.4-1.348-6.602-2.021c0.127-0.593,0.238-1.189,0.32-1.789c0.837-6.119-0.782-12.614-4.605-17.401
			c1.318-0.126,2.616-0.26,3.929-0.497c1.353-0.245,2.703-0.5,4.052-0.765c2.831-0.555,5.664-1.101,8.493-1.666
			c2.781-0.555,5.561-1.131,8.331-1.739c2.78-0.61,5.719-1.047,8.379-2.084c0.311-0.121,0.296-0.624-0.084-0.617
			c-1.406,0.024-2.823,0.285-4.212,0.499c-1.362,0.21-2.712,0.462-4.068,0.708c-2.841,0.514-5.681,1.035-8.518,1.579
			c-2.788,0.534-5.569,1.104-8.354,1.657c-1.392,0.276-2.782,0.557-4.17,0.854c-1.444,0.309-2.826,0.711-4.233,1.14
			c-0.087,0.027-0.151,0.079-0.204,0.139c-0.235-0.265-0.477-0.524-0.727-0.777l1.402-0.295c0.019-0.002,0.037-0.005,0.056-0.007
			c0.19-0.028,0.445-0.08,0.854-0.165c3.105-0.655,14.172-3.226,29.647-6.724c23.204-5.245,56.281-12.564,86.999-18.571
			c15.358-3.003,30.128-5.678,42.771-7.6c12.638-1.923,23.17-3.09,29.964-3.088c1.364,0,2.575,0.047,3.614,0.141
			c15.279,1.391,26.198,6.516,33.593,11.628c1.314,0.909,2.511,1.816,3.606,2.703c-0.974-0.388-1.946-0.781-2.934-1.129
			c-1.508-0.53-3.026-1.014-4.553-1.486c-3.091-0.955-6.204-1.841-9.313-2.738c-2.892-0.834-5.879-1.973-8.913-2.095
			c-2.629-0.106-5.087,0.887-6.834,2.861c-1.786,2.02-2.781,4.587-3.672,7.094c-0.253,0.712,0.272,1.178,0.859,1.243
			c2.526,1.755,5.484,2.935,8.323,4.061c3.159,1.253,6.385,2.322,9.667,3.205c6.495,1.747,13.18,2.775,19.9,3.068
			c3.592,0.157,7.263,0.179,10.85-0.191c0.587,0.648,1.193,1.331,1.814,2.06c-0.533,0.053-1.066,0.105-1.599,0.156
			c-1.587,0.152-3.176,0.232-4.77,0.224c-3.156-0.016-6.389-0.29-9.507-0.786c-0.449-0.071-0.654,0.585-0.192,0.697
			c1.553,0.38,3.088,0.754,4.676,0.959c1.622,0.209,3.256,0.345,4.89,0.423c1.587,0.075,3.182,0.097,4.77,0.056
			c0.84-0.022,1.674-0.085,2.51-0.168c0.163-0.016,0.323-0.027,0.48-0.04c0.707,0.877,1.413,1.791,2.091,2.741
			c2.993,4.174,5.407,8.945,5.391,13.226c0,0.722-0.066,1.432-0.205,2.129c-1.039,5.239-5.614,12.93-16.701,20.408
			c-11.082,7.482-28.662,14.761-55.564,19.243c-0.111,0.018-0.206,0.067-0.301,0.115c-0.485,0.058-0.969,0.147-1.451,0.222
			l-0.235,0.036c0.209-0.293,0.196-0.728-0.045-1.025c3.681-0.647,7.291-1.69,10.866-2.771c1.956-0.592,3.901-1.214,5.833-1.879
			c0.924-0.318,1.851-0.63,2.767-0.973c0.459-0.172,0.849-0.434,1.281-0.658c0.527-0.273,1.106-0.462,1.657-0.679
			c0.272-0.107,0.165-0.545-0.124-0.448c-0.503,0.168-1.005,0.356-1.519,0.488c-0.475,0.122-0.967,0.141-1.44,0.276
			c-0.979,0.28-1.94,0.644-2.909,0.956c-1.944,0.624-3.893,1.238-5.847,1.83c-3.765,1.139-7.584,2.105-11.315,3.346
			c-0.535-0.238-1.166-0.366-1.671-0.531c-0.829-0.269-1.657-0.538-2.486-0.807c-1.699-0.552-3.414-1.059-5.132-1.55
			c-3.436-0.983-6.865-1.982-10.328-2.863c-0.358-0.091-0.474,0.407-0.149,0.54c3.326,1.352,6.693,2.59,10.058,3.845
			c1.635,0.61,3.276,1.208,4.931,1.76c0.87,0.29,1.74,0.58,2.611,0.871l0.189,0.067c-1.195,2.272-2.475,4.52-3.93,6.636
			c-0.644,0.937-1.312,2.044-2.219,2.755c-0.471,0.369-0.99,0.488-1.522,0.483c0.127-0.094,0.254-0.189,0.376-0.288
			c0.21-0.171,0.381-0.376,0.552-0.584c0.363-0.442,0.722-0.891,1.044-1.364c0.304-0.446,0.584-0.907,0.857-1.372
			c0.304-0.517,0.666-1.162,0.408-1.761c-0.08-0.186-0.369-0.29-0.554-0.226c-0.549,0.19-0.784,0.824-1.007,1.312
			c-0.224,0.491-0.484,0.965-0.759,1.429c-0.267,0.45-0.537,0.897-0.839,1.325c-0.146,0.207-0.3,0.407-0.423,0.628
			c-0.137,0.246-0.256,0.495-0.411,0.731l-0.019,0.087c-0.352-0.066-0.704-0.16-1.047-0.256c-2.587-0.724-5.125-1.58-7.615-2.589
			c-1.83-0.741-4.763-1.608-5.166-3.85c-0.247-1.372-0.039-2.883-0.015-4.269c0.029-1.627-0.002-3.226-0.076-4.85
			c-0.02-0.435-0.725-0.587-0.803-0.109c-0.256,1.565-0.474,3.109-0.63,4.689c-0.108,1.099-0.275,2.225-0.304,3.341
			c-0.207-0.111-0.447-0.174-0.731-0.121c-10.911,2.056-21.842,4.018-32.689,6.394c-3.074,0.674-6.121,1.457-9.192,2.143
			c-0.59,0.132-0.327,0.977,0.245,0.888c5.533-0.853,11.079-1.575,16.596-2.543c5.45-0.956,10.887-1.988,16.324-3.013
			c3.1-0.584,6.2-1.168,9.3-1.752c0.113-0.021,0.192-0.071,0.279-0.115c0.116,0.6,0.327,1.173,0.63,1.695
			c-2.082,0.336-9.492,1.562-17.294,3.226c-2.615,0.558-5.267,1.165-7.781,1.805l-16.686,2.972
			c-11.104,1.978-22.211,3.947-33.274,6.148c-6.198,1.233-12.379,2.528-18.564,3.819c-0.458,0.096-0.254,0.755,0.19,0.689
			c11.191-1.651,22.364-3.371,33.518-5.261c7.474-1.267,14.937-2.598,22.4-3.935c-0.472,0.316-0.883,0.651-1.21,1.038
			c-1.751,2.145-6.467,5.769-17.418,10.015c-10.95,4.255-28.128,9.168-54.815,14.083c-13.464,2.48-23.877,3.401-31.902,3.401
			C360.925,316.28,354.287,314.264,350.68,312.345z M429.466,358.083c0.213-1.158,0.358-2.346,0.365-3.525
			c0.005-0.874,0.031-1.984-0.293-2.866c0.508,0.314,1.059,0.577,1.569,0.845c0.541,0.284,1.083,0.569,1.624,0.853
			c-0.028,0.227-0.052,0.456-0.083,0.684c-0.109,0.803-0.219,1.605-0.328,2.408c-0.231,1.695-0.46,3.389-0.693,5.084
			c-0.132,0.962-0.222,2.558-1.266,3.015c-0.361,0.158-0.738,0.181-1.116,0.125c-0.149-0.162-0.382-0.236-0.593-0.147
			c-0.3-0.105-0.596-0.245-0.88-0.403c0-0.246-0.006-0.492-0.037-0.733l-0.025-0.084C428.514,361.67,429.13,359.908,429.466,358.083
			z M425.21,363.784c-0.27,0.446-0.109,0.945,0.242,1.273c-0.22,0.766-0.456,1.522-0.796,2.253
			c-0.358,0.636-0.749,1.253-1.208,1.817c-0.347,0.425-0.72,0.829-1.109,1.216c-0.533,0.461-1.108,0.873-1.751,1.188
			c-2.656,1.303-6.223,0.707-8.175-1.547c-2.565-2.962-1.29-7.705-0.417-11.074c0.968-3.732,2.604-7.596,6.13-9.568
			c1.673-0.935,3.632-1.27,5.471-0.654c1.714,0.575,3.439,1.946,4.062,3.693c0.062,0.176,0.26,0.217,0.399,0.151
			c-0.023,0.644,0.021,1.307-0.013,1.909c-0.062,1.099-0.184,2.183-0.416,3.259C427.164,359.856,426.351,361.897,425.21,363.784z
			 M435.66,356.299c0.729,0.028,1.469,0.208,2.14,0.494c1.354,0.576,2.42,1.572,3.273,2.752c1.997,2.76,1.639,6.608,0.41,9.606
			c-0.669,1.633-1.659,3.158-2.749,4.54c-1.015,1.288-2.137,2.582-3.465,3.557c-1.18,0.866-2.681,1.57-4.175,1.228
			c-1.366-0.313-2.396-1.344-3.043-2.548c-0.369-0.686-0.588-1.421-0.692-2.173c0.724,0.522,1.684,0.767,2.539,0.754
			c1.22-0.019,2.403-0.484,3.303-1.305c0.428-0.39,0.863-0.895,0.983-1.474c0.053-0.255,0.048-0.571-0.162-0.762
			c-0.263-0.238-0.624-0.08-0.859,0.115c-0.404,0.336-0.691,0.787-1.11,1.114c-0.392,0.306-0.836,0.555-1.313,0.695
			c-0.593,0.174-1.195,0.169-1.803,0.08c-0.579-0.085-1.104-0.309-1.646-0.506c0.015-0.475,0.067-0.951,0.16-1.421
			c0.292-1.483,0.935-2.845,1.443-4.248c0.487,0.088,0.994,0.103,1.529,0.01c1.711-0.296,2.696-1.742,3.062-3.339
			c0.41-1.789,0.525-3.678,0.762-5.496l0.21-1.61C434.855,356.328,435.252,356.284,435.66,356.299z M524.92,362.185
			c-6.652,0.13-13.318-0.313-19.949-0.795c-2.969-0.216-6.026-0.539-8.788-1.725c-2.434-1.045-4.48-2.797-6.038-4.925
			c-4.03-5.503-4.743-12.692-5.216-19.291c-0.032-0.444-0.652-0.442-0.689,0c-0.276,3.364-0.396,6.682,0.064,10.039
			c0.41,2.989,1.343,5.93,2.823,8.564c1.04,1.853,2.374,3.534,3.967,4.932c-0.531-0.06-1.07-0.081-1.608-0.151
			c-1.02-0.132-2.03-0.393-3-0.731c-1.918-0.67-3.713-1.753-5.203-3.133c-3.224-2.987-4.595-7.035-4.673-11.348
			c-0.022-1.211,0.139-2.447,0.425-3.624c0.293-1.204,0.676-2.532,1.239-3.635c0.229-0.45-0.381-0.793-0.669-0.391
			c-0.446,0.621-0.846,1.217-1.201,1.851c-0.06-0.025-0.11-0.063-0.175-0.077l-1.428-0.312c0.344-1.242,0.742-2.451,1.274-3.638
			c0.647-1.443,1.268-2.866,2.225-4.137c0.33-0.438-0.391-0.984-0.758-0.584c-1.104,1.203-2.259,2.443-3.061,3.875
			c-0.703,1.256-1.286,2.645-1.67,4.05l-23.018-5.033c0.078-0.083,0.16-0.16,0.237-0.245c0.28-0.307,0.542-0.625,0.801-0.944
			c1.616,0.467,3.242,0.879,4.893,1.208c0.891,0.178,1.784,0.344,2.678,0.513c0.832,0.157,1.959,0.597,2.647-0.099
			c0.197-0.199,0.207-0.475,0.092-0.715c-0.407-0.851-1.665-0.806-2.468-0.929c-0.902-0.138-1.804-0.275-2.708-0.404
			c-1.486-0.211-2.975-0.347-4.47-0.445c0.662-0.905,1.251-1.848,1.768-2.829c1.239,0.488,2.485,0.963,3.774,1.299
			c0.247,0.064,0.422-0.305,0.179-0.425c-1.177-0.583-2.409-1.038-3.646-1.476c0.825-1.676,1.471-3.448,1.966-5.302
			c0.304-1.137,0.559-2.287,0.79-3.441c0.112-0.557,0.225-1.115,0.321-1.676c0.081-0.472,0.09-0.904,0.083-1.35
			c0.918,0.421,1.829,0.855,2.753,1.263c1.835,0.811,3.678,1.6,5.524,2.384c1.898,0.806,3.762,1.649,5.848,1.736
			c0.382,0.016,0.588-0.498,0.314-0.757c-1.482-1.401-3.335-2.144-5.193-2.924c-1.892-0.794-3.784-1.584-5.687-2.351
			c-1.857-0.749-3.719-1.474-5.597-2.168c-0.936-0.346-1.877-0.676-2.826-0.985c-1.035-0.337-2.105-0.539-3.134-0.889
			c-0.284-0.097-0.475,0.35-0.206,0.488c0.928,0.473,1.781,1.074,2.703,1.563c0.881,0.467,1.774,0.914,2.674,1.344
			c0.413,0.197,0.832,0.378,1.245,0.571c-0.004,0.01-0.012,0.016-0.016,0.026c-0.262,0.628-0.458,1.171-0.587,1.848
			c-0.121,0.639-0.246,1.277-0.379,1.913c-0.25,1.19-0.53,2.375-0.867,3.544c-0.69,2.39-1.646,4.641-3.006,6.728
			c-1.291,1.982-2.942,3.675-4.683,5.264c-1.352,1.235-2.722,2.457-4.105,3.66l0.04-0.104c0.267-0.704,0.547-1.46,0.408-2.219
			c-0.043-0.233-0.381-0.377-0.576-0.234c-0.598,0.439-0.908,1.126-1.189,1.796c-0.319,0.761-0.64,1.521-0.948,2.286l-1.951,4.84
			c-1.105,2.742-2.305,5.449-3.414,8.19c-0.141,0.007-0.268,0.047-0.385,0.119c-0.479-0.242-0.959-0.485-1.438-0.727
			c-0.635-0.321-1.314-0.729-2.014-0.974c0.847-2.753,1.582-5.531,2.325-8.315c0.409-1.536,0.856-3.061,1.253-4.6
			c0.193-0.747,0.386-1.495,0.579-2.242c0.206-0.796,0.526-1.649,0.479-2.479c-0.017-0.31-0.203-0.538-0.439-0.656
			c0.032-0.596,0.055-1.193,0.051-1.801c-0.009-1.32-0.029-2.64-0.043-3.959c-0.028-2.64-0.07-5.279-0.131-7.919
			c-0.019-0.83,0.294-2.864-0.785-3.187c-1.213-0.363-1.072,1.74-1.055,2.368c0.073,2.64,0.153,5.279,0.258,7.919
			c0.024,0.603,0.048,1.206,0.072,1.808c-9.735-3.136-19.512-6.138-29.298-9.109c-1.761-0.535-3.533-1.024-5.305-1.509
			c1.251-0.196,2.535-0.408,3.845-0.633c-0.067,0.121-0.059,0.279,0.041,0.398c0.645,0.767,1.824,1.022,2.732,1.361
			c0.949,0.354,1.906,0.7,2.867,1.018c0.961,0.318,1.926,0.625,2.889,0.937c0.602,0.195,2.168,0.678,2.451-0.256
			c0.281-0.93-1.36-1.412-1.943-1.584c-0.97-0.286-1.94-0.577-2.912-0.856c-0.971-0.279-1.953-0.532-2.934-0.775
			c-0.61-0.151-1.285-0.385-1.947-0.459c0.66-0.117,1.323-0.234,1.998-0.359c26.78-4.933,44.074-9.868,55.214-14.196
			c6.06-2.359,10.29-4.525,13.25-6.437l38.439,23.24c0.01,0.006,0.023,0.006,0.033,0.012c-1.68-0.169-3.563,0.453-5.05,1.069
			c-0.505,0.209-0.998,0.441-1.482,0.687c-0.009-0.001-0.014-0.005-0.023-0.006c-1.341-0.085-2.728-0.028-4.069,0.039
			c-0.652,0.033-1.303,0.062-1.953,0.126c-0.711,0.07-1.401,0.254-2.116,0.311c-0.633,0.05-0.63,0.926,0,0.982
			c0.688,0.06,1.35,0.248,2.035,0.322c0.677,0.073,1.355,0.112,2.035,0.152c0.32,0.019,0.648,0.029,0.973,0.046
			c-0.17,0.13-0.346,0.252-0.512,0.388c-1.53,1.255-2.867,2.739-3.981,4.373c-0.566,0.831-1.063,1.731-1.423,2.672
			c-0.341,0.894-0.665,1.889-0.552,2.849c0.043,0.364,0.51,0.679,0.809,0.335c0.586-0.676,0.96-1.495,1.401-2.272
			c0.458-0.806,0.926-1.603,1.436-2.377c0.993-1.506,2.22-2.849,3.596-4.013c1.378-1.164,2.907-2.149,4.548-2.902
			c0.83-0.381,1.686-0.717,2.555-0.998c0.851-0.275,1.738-0.477,2.54-0.885c0.324-0.164,0.246-0.675-0.086-0.776
			c0.32-0.043,0.62-0.208,0.799-0.506c0.073-0.121,0.114-0.25,0.137-0.381c1.421,0.114,2.781-0.341,4.002-1.12
			c0.337,2.009,2.127,3.463,4.168,3.568c2.569,0.132,4.777-1.512,6.251-3.467c0.277-0.367,0.549-0.767,0.815-1.182
			c-0.024,0.192,0.006,0.379,0.138,0.596c0.184,0.304,0.535,0.535,0.902,0.517c3.004-0.15,6.01-0.429,9.006-0.689
			c0.938-0.082,1.876-0.182,2.813-0.278c-2.196,1.037-4.211,2.495-5.882,4.189c-3.362,3.41-5.48,7.921-6.005,12.678
			c-0.282,2.547-0.25,5.615,0.958,7.93c0.201,0.386,0.802,0.197,0.802-0.217c0.001-1.127-0.163-2.247-0.199-3.379
			c-0.036-1.107-0.034-2.206,0.07-3.31c0.21-2.227,0.743-4.451,1.639-6.503c1.696-3.882,4.544-7.129,8.132-9.374
			c1.522-0.952,3.124-1.71,4.78-2.362c1.458,0.086,2.93,0.001,4.389,0.22c1.698,0.255,3.382,0.751,4.945,1.463
			c3.21,1.462,5.943,3.797,7.832,6.78c3.926,6.198,4.097,14.063,1.324,20.744c-0.993,2.391-2.349,4.576-3.872,6.649l-0.211,0.136
			c-0.347,0.374-0.78,0.605-1.139,0.973c-0.122,0.125-0.241,0.251-0.359,0.379c-0.059,0.022-0.118,0.031-0.178,0.068
			c-1.251,0.772-2.4,1.693-3.64,2.488c-0.641,0.411-1.295,0.8-1.958,1.174c-0.964,0.305-1.962,0.507-2.963,0.603
			c-4.415,0.423-8.684-1.167-12.2-3.778c-2.1-1.56-4.03-3.361-5.656-5.415c-0.24-0.303-0.741,0.09-0.534,0.412
			c1.326,2.067,2.823,4.111,4.676,5.742c1.878,1.653,3.96,3.022,6.279,3.971c1.512,0.619,3.095,0.993,4.691,1.152
			c-1.371,0.53-2.767,0.997-4.18,1.406C537.315,361.393,531.119,362.063,524.92,362.185z M616.622,379.196l-0.46,0.675
			c0,0-0.117,0.171-0.328,0.478c-0.742,1.075-2.641,3.801-4.652,6.493c-1.005,1.345-2.039,2.682-2.964,3.792
			c-0.517,0.624-1,1.166-1.419,1.602c0.009-0.936,0.145-2.271,0.356-3.743c0.328-2.302,0.827-4.934,1.243-7.047
			c0.208-1.057,0.395-1.985,0.532-2.684c0.068-0.35,0.124-0.642,0.164-0.872c0.02-0.116,0.037-0.215,0.049-0.305
			c0.012-0.096,0.024-0.158,0.026-0.305c0-0.608-0.494-1.102-1.102-1.102c-0.591,0-1.065,0.469-1.092,1.053l-0.009-0.001
			l-0.001,0.007c-0.008,0.076-0.057,0.363-0.129,0.739c-0.054,0.28-0.123,0.631-0.2,1.017l-53.993-20.751
			c0.413-0.211,0.827-0.42,1.234-0.644c0.854-0.268,1.695-0.586,2.503-1.004c1.146-0.592,2.218-1.351,3.157-2.235
			c0.339-0.319,0.651-0.666,0.938-1.034c1.487-1.39,2.79-2.995,3.9-4.736c0.006,0.004,0.01,0.011,0.017,0.015l45.728,26.563
			l7.44,4.322L616.622,379.196z"/>
		<path style="fill:#222221;" d="M119.361,149.317c-0.515,0-0.516,0.801,0,0.801C119.876,150.118,119.877,149.317,119.361,149.317z"
			/>
		<path style="fill:#222221;" d="M253.242,212.363c-0.669-0.289-1.337-0.577-2.006-0.866c-1.317-0.569-2.634-1.13-3.969-1.656
			c-2.687-1.06-5.385-2.095-8.07-3.162c-0.344-0.137-0.581,0.432-0.252,0.598c2.584,1.308,5.153,2.645,7.734,3.959
			c1.293,0.659,2.603,1.278,3.916,1.895c0.657,0.308,1.314,0.617,1.971,0.925c0.631,0.296,1.173,0.58,1.881,0.403
			c0.43-0.108,0.584-0.601,0.394-0.968C254.503,212.839,253.88,212.638,253.242,212.363z"/>
		<path style="fill:#222221;" d="M258.904,215.647c-0.222-0.176-0.451-0.342-0.676-0.512c-0.209-0.157-0.413-0.323-0.628-0.471
			c-0.221-0.152-0.454-0.289-0.68-0.433c-0.204-0.13-0.517-0.049-0.63,0.165c-0.121,0.23-0.051,0.49,0.165,0.63
			c0.218,0.142,0.433,0.29,0.654,0.426c0.229,0.14,0.472,0.259,0.708,0.386c0.229,0.124,0.455,0.253,0.687,0.37
			c0.246,0.125,0.492,0.226,0.752,0.32c0.214,0.077,0.358-0.219,0.214-0.367C259.288,215.977,259.106,215.807,258.904,215.647z"/>
		<path style="fill:#222221;" d="M234.815,281.818c-0.88-3.309-1.465-6.729-1.454-10.161c0.002-0.502-0.746-0.495-0.775,0
			c-0.211,3.544-0.045,7.093,0.801,10.555c0.423,1.731,0.973,3.432,1.642,5.083c0.591,1.46,1.261,3.364,2.557,4.348
			c0.278,0.211,0.765-0.072,0.725-0.416c-0.086-0.754-0.463-1.53-0.782-2.217c-0.358-0.772-0.724-1.54-1.056-2.324
			C235.804,285.106,235.255,283.475,234.815,281.818z"/>
		<path style="fill:#222221;" d="M239.762,296.464c0.465,0.504,0.935,1.003,1.412,1.496c0.476,0.493,0.938,1.002,1.457,1.451
			c0.092,0.08,0.223,0.099,0.322,0.019l0.063-0.317c-0.423-0.557-0.905-1.062-1.375-1.579c-0.469-0.515-0.942-1.024-1.422-1.527
			C239.93,295.705,239.48,296.159,239.762,296.464z"/>
		<path style="fill:#222221;" d="M476.593,321.265l-0.263-0.172c-0.164-0.107-0.328-0.215-0.492-0.322
			c-0.164-0.107-0.344-0.187-0.519-0.275c-0.188-0.094-0.376-0.188-0.564-0.282c-0.209-0.105-0.494-0.063-0.612,0.161
			c-0.112,0.212-0.058,0.49,0.161,0.613c0.38,0.213,0.756,0.453,1.159,0.622c0.184,0.077,0.368,0.154,0.552,0.231l0.267,0.112
			c0.118,0.05,0.234,0.064,0.361,0.079c0.118,0.014,0.243-0.09,0.283-0.191c0.049-0.121,0.021-0.241-0.064-0.339
			C476.779,321.407,476.697,321.334,476.593,321.265z"/>
		<path style="fill:#222221;" d="M495.399,321.623c0.283-0.359,0.425-0.805-0.035-1.111c-0.552-0.367-1.094-0.363-1.714-0.148
			c-1.049,0.364-2.074,0.822-3.046,1.359c-0.967,0.535-1.853,1.195-2.651,1.96c-0.782,0.75-1.417,1.604-2.08,2.456
			c-0.374,0.48,0.224,1.136,0.688,0.688c1.242-1.199,2.825-2.054,4.316-2.9c0.706-0.4,1.42-0.783,2.172-1.091
			c0.405-0.166,0.818-0.312,1.234-0.449C494.793,322.221,495.152,322.035,495.399,321.623z"/>
		<path style="fill:#222221;" d="M481.893,329.571c-0.446,0.103-0.726,0.5-1.005,0.846c-0.258,0.319-0.515,0.639-0.773,0.958
			c-0.267,0.331-0.54,0.657-0.787,1.003c-0.242,0.341-0.427,0.714-0.649,1.069c-0.255,0.406,0.314,0.818,0.649,0.501
			c0.297-0.281,0.623-0.53,0.903-0.827c0.281-0.298,0.536-0.618,0.799-0.932l0.763-0.916c0.148-0.177,0.317-0.352,0.445-0.544
			c0.072-0.107,0.099-0.194,0.146-0.287c0.069-0.138,0.093-0.269,0.098-0.421C482.491,329.706,482.178,329.505,481.893,329.571z"/>
		<path style="fill:#222221;" d="M464.114,332.768l-0.167-0.085c-0.113-0.058-0.227-0.116-0.341-0.173l-0.276-0.036
			c-0.107,0.024-0.19,0.109-0.231,0.207c-0.084,0.198,0.025,0.421,0.231,0.482l0.368,0.11l0.18,0.054l0.251,0.023
			c0.1-0.001,0.189-0.062,0.228-0.154l-0.052-0.273L464.114,332.768z"/>
		<path style="fill:#222221;" d="M417.186,319.952l-0.12-0.091c-0.103-0.061-0.244-0.08-0.36-0.111
			c-0.194-0.051-0.39-0.095-0.585-0.143c-0.108-0.026-0.228-0.014-0.325,0.043c-0.087,0.051-0.171,0.151-0.194,0.252
			c-0.05,0.22,0.066,0.46,0.295,0.519c0.195,0.05,0.388,0.104,0.584,0.15c0.118,0.028,0.251,0.076,0.373,0.076l0.228-0.034
			l0.132-0.031c0.211-0.056,0.296-0.344,0.131-0.496L417.186,319.952z"/>
		<path style="fill:#222221;" d="M413.695,283.828c-2.957,0.174-5.845,0.868-8.749,1.431c-2.92,0.566-5.838,1.142-8.757,1.715
			c-5.834,1.147-11.647,2.369-17.453,3.651c-3.302,0.729-6.601,1.471-9.905,2.186c-0.515,0.111-0.29,0.867,0.215,0.781
			c5.878-1.004,11.771-1.927,17.645-2.955c5.818-1.018,11.618-2.145,17.418-3.264c3.266-0.63,6.618-1.082,9.775-2.141
			C414.611,284.988,414.541,283.778,413.695,283.828z"/>
		<path style="fill:#222221;" d="M414.938,281.572c-0.131,0.021-0.257,0.039-0.383,0.081c-0.115,0.039-0.229,0.077-0.344,0.116
			c-0.238,0.08-0.476,0.161-0.715,0.241c-0.256,0.086-0.402,0.351-0.293,0.61c0.048,0.113,0.126,0.191,0.239,0.239
			c0.141,0.059,0.267,0.04,0.402-0.023c0.227-0.106,0.455-0.212,0.682-0.318c0.11-0.051,0.219-0.102,0.329-0.153
			c0.119-0.056,0.222-0.129,0.331-0.204c0.134-0.092,0.198-0.248,0.132-0.403C415.252,281.601,415.1,281.547,414.938,281.572z"/>
		<path style="fill:#222221;" d="M492.709,236.841c2.438-0.398,4.879-0.733,7.312-1.171c2.335-0.42,4.668-0.838,6.998-1.284
			c2.328-0.445,4.654-0.896,6.979-1.35c1.163-0.227,2.326-0.451,3.488-0.681c1.167-0.231,2.489-0.383,3.537-0.979
			c0.462-0.263,0.202-0.86-0.248-0.915c-1.156-0.141-2.419,0.225-3.546,0.45c-1.206,0.241-2.41,0.49-3.615,0.735
			c-2.32,0.472-4.64,0.947-6.958,1.428c-2.318,0.481-4.627,0.989-6.94,1.495c-2.402,0.525-4.771,1.151-7.162,1.715
			C492.188,236.372,492.35,236.9,492.709,236.841z"/>
		<path style="fill:#222221;" d="M534.625,228.244c-1.54,0.116-3.063,0.475-4.58,0.757c-0.375,0.07-0.217,0.645,0.158,0.573
			c1.493-0.286,3.02-0.502,4.474-0.949C534.876,228.563,534.851,228.227,534.625,228.244z"/>
		<path style="fill:#222221;" d="M584.994,228.865c3.288-0.124,6.6,0.084,9.881,0.3c1.6,0.105,3.199,0.254,4.793,0.434
			c0.859,0.097,1.716,0.207,2.572,0.333c0.819,0.12,1.623,0.311,2.453,0.238c0.565-0.05,0.96-0.903,0.324-1.195
			c-1.446-0.664-3.248-0.711-4.818-0.899c-1.681-0.201-3.365-0.339-5.057-0.418c-3.402-0.161-6.76,0.08-10.148,0.372
			C584.467,228.075,584.45,228.886,584.994,228.865z"/>
		<path style="fill:#222221;" d="M611.32,229.995c0.469,0.19,0.934,0.378,1.415,0.535c0.477,0.157,0.954,0.316,1.434,0.466
			c0.363,0.113,0.611-0.449,0.262-0.622c-0.458-0.226-0.92-0.442-1.381-0.662c-0.485-0.231-0.981-0.426-1.48-0.623
			c-0.229-0.09-0.525,0.099-0.577,0.328C610.93,229.69,611.075,229.896,611.32,229.995z"/>
		<path style="fill:#222221;" d="M489.76,205.203c0.828,0.35,2.118-0.831,2.88-2.636c0.762-1.805,0.708-3.552-0.12-3.902
			c-0.828-0.35-2.117,0.831-2.879,2.636C488.878,203.106,488.932,204.853,489.76,205.203z"/>
		<path style="fill:#222221;" d="M482.725,206.329c0.828,0.35,2.117-0.831,2.88-2.636c0.762-1.806,0.708-3.552-0.12-3.902
			c-0.829-0.35-2.118,0.831-2.88,2.636C481.843,204.232,481.896,205.979,482.725,206.329z"/>
		<path style="fill:#222221;" d="M475.502,207.829c0.828,0.35,2.117-0.831,2.879-2.636c0.762-1.805,0.708-3.552-0.12-3.902
			c-0.828-0.35-2.118,0.83-2.88,2.636C474.62,205.733,474.674,207.48,475.502,207.829z"/>
		<path style="fill:#222221;" d="M468.561,209.659c0.828,0.35,2.117-0.831,2.879-2.636c0.762-1.805,0.708-3.552-0.12-3.902
			c-0.828-0.35-2.118,0.831-2.88,2.636C467.679,207.562,467.732,209.309,468.561,209.659z"/>
		<path style="fill:#222221;" d="M461.432,211.16c0.828,0.35,2.118-0.831,2.88-2.636c0.762-1.805,0.708-3.552-0.12-3.902
			c-0.828-0.35-2.117,0.831-2.879,2.636C460.55,209.063,460.604,210.81,461.432,211.16z"/>
		<path style="fill:#222221;" d="M454.772,212.989c0.828,0.35,2.118-0.831,2.879-2.636c0.762-1.805,0.708-3.552-0.12-3.902
			c-0.828-0.35-2.117,0.83-2.879,2.636C453.89,210.893,453.944,212.639,454.772,212.989z"/>
		<path style="fill:#222221;" d="M440.983,215.522c0.828,0.35,2.117-0.831,2.88-2.636c0.762-1.805,0.708-3.552-0.12-3.902
			c-0.829-0.35-2.118,0.831-2.88,2.636C440.101,213.425,440.155,215.172,440.983,215.522z"/>
		<path style="fill:#222221;" d="M433.999,217.21c0.829,0.35,2.118-0.831,2.88-2.636c0.762-1.805,0.708-3.552-0.12-3.902
			c-0.828-0.35-2.117,0.831-2.88,2.636C433.117,215.114,433.171,216.861,433.999,217.21z"/>
		<path style="fill:#222221;" d="M427.996,218.852c0.828,0.35,2.118-0.83,2.88-2.636c0.762-1.805,0.708-3.553-0.12-3.902
			c-0.828-0.35-2.117,0.831-2.879,2.636C427.114,216.756,427.168,218.503,427.996,218.852z"/>
		<path style="fill:#222221;" d="M421.524,219.978c0.829,0.35,2.118-0.831,2.88-2.636c0.762-1.805,0.708-3.552-0.12-3.902
			c-0.828-0.35-2.117,0.83-2.879,2.636C420.642,217.881,420.695,219.628,421.524,219.978z"/>
		<path style="fill:#222221;" d="M408.848,222.698c0.828,0.35,2.117-0.831,2.88-2.636c0.762-1.805,0.708-3.553-0.12-3.902
			c-0.828-0.35-2.118,0.83-2.879,2.636C407.966,220.601,408.02,222.348,408.848,222.698z"/>
		<path style="fill:#222221;" d="M401.693,220.297c-0.762,1.805-0.708,3.552,0.12,3.902c0.828,0.35,2.118-0.831,2.88-2.636
			c0.762-1.805,0.708-3.552-0.12-3.902C403.744,217.311,402.455,218.491,401.693,220.297z"/>
		<path style="fill:#222221;" d="M395.27,225.512c0.828,0.35,2.118-0.83,2.88-2.636c0.762-1.805,0.708-3.552-0.12-3.902
			c-0.828-0.35-2.117,0.831-2.88,2.636C394.388,223.415,394.442,225.162,395.27,225.512z"/>
		<path style="fill:#222221;" d="M384.147,222.241c-0.828-0.35-2.118,0.83-2.88,2.636c-0.762,1.805-0.708,3.552,0.12,3.902
			c0.828,0.35,2.118-0.831,2.879-2.636C385.029,224.338,384.975,222.591,384.147,222.241z"/>
		<path style="fill:#222221;" d="M377.692,223.562c-0.828-0.35-2.118,0.831-2.88,2.636c-0.762,1.805-0.708,3.552,0.12,3.902
			c0.828,0.35,2.117-0.831,2.879-2.636C378.574,225.659,378.52,223.912,377.692,223.562z"/>
		<path style="fill:#222221;" d="M252.638,254.257c-0.762,1.805-0.708,3.553,0.12,3.902c0.828,0.35,2.117-0.831,2.88-2.636
			c0.762-1.805,0.708-3.553-0.12-3.902C254.69,251.271,253.4,252.451,252.638,254.257z"/>
		<path style="fill:#222221;" d="M246.549,255.538c-0.762,1.805-0.708,3.552,0.12,3.902c0.828,0.35,2.117-0.831,2.879-2.636
			c0.762-1.805,0.708-3.552-0.12-3.902C248.6,252.552,247.311,253.732,246.549,255.538z"/>
		<path style="fill:#222221;" d="M258.027,253.237c-0.762,1.805-0.708,3.552,0.12,3.902c0.828,0.35,2.117-0.831,2.879-2.636
			c0.762-1.805,0.708-3.552-0.12-3.902C260.078,250.252,258.789,251.432,258.027,253.237z"/>
		<path style="fill:#222221;" d="M399.76,212.993c1.064-0.177,2.126-0.354,3.183-0.567c0.516-0.104,1.026-0.242,1.537-0.367
			c0.54-0.132,1.033-0.263,1.527-0.523c0.338-0.178,0.153-0.652-0.182-0.674c-0.543-0.036-1.039,0.05-1.572,0.146
			c-0.539,0.097-1.084,0.181-1.618,0.3c-1.049,0.233-2.087,0.502-3.127,0.771C398.907,212.235,399.171,213.091,399.76,212.993z"/>
		<path style="fill:#222221;" d="M527.948,187.159c1.541-0.059,3.075-0.057,4.615-0.162c1.584-0.108,3.168-0.219,4.751-0.343
			c1.539-0.121,3.077-0.261,4.615-0.393c1.424-0.123,3.214-0.085,4.478-0.836c0.415-0.247,0.295-0.826-0.128-0.976
			c-1.365-0.485-3.086-0.1-4.486,0.051c-1.584,0.171-3.168,0.338-4.751,0.521c-3.087,0.358-6.141,0.82-9.208,1.301
			C527.359,186.397,527.473,187.177,527.948,187.159z"/>
		<path style="fill:#222221;" d="M551.786,185.54c0.447-0.026,0.893-0.059,1.339-0.098c0.458-0.04,0.921-0.052,1.365-0.173
			c0.139-0.038,0.231-0.18,0.21-0.321c-0.023-0.155-0.139-0.236-0.288-0.254c-0.11-0.014-0.224-0.035-0.335-0.033
			c-0.111,0.002-0.223,0.013-0.335,0.019c-0.214,0.012-0.429,0.024-0.644,0.036c-0.439,0.025-0.876,0.054-1.313,0.092
			c-0.197,0.017-0.366,0.156-0.366,0.366C551.42,185.364,551.588,185.552,551.786,185.54z"/>
		<path style="fill:#222221;" d="M554.415,202.917c0.229-0.194,0.182-0.56,0-0.761l-0.233-0.205l-0.151-0.104l-0.223-0.231
			l-0.138-0.12c-0.263-0.261-0.455-0.601-0.51-0.971c-0.143-0.959,0.573-1.904,1.119-2.618c0.75-0.982,1.531-1.94,2.275-2.926
			c0.808-1.07,1.537-2.18,2.285-3.29c0.33-0.489-0.409-1.046-0.812-0.626c-1.107,1.154-2.204,2.294-3.232,3.522
			c-0.941,1.124-2.014,2.225-2.763,3.492c-0.677,1.146-0.933,2.471-0.372,3.714C552.109,202.784,553.393,203.781,554.415,202.917z"
			/>
		<path style="fill:#222221;" d="M560.227,205.947c0.268,0.116,0.536,0.232,0.804,0.348c0.277,0.12,0.557,0.27,0.845,0.358
			c0.279,0.085,0.557,0.161,0.833,0.257c0.275,0.096,0.552,0.184,0.829,0.271c0.272,0.085,0.453-0.331,0.196-0.464
			c-0.258-0.133-0.517-0.265-0.779-0.391c-0.264-0.126-0.514-0.266-0.772-0.403c-0.266-0.142-0.57-0.233-0.851-0.342
			c-0.272-0.106-0.544-0.213-0.816-0.319C560.124,205.109,559.838,205.778,560.227,205.947z"/>
	</g>
</g>
</svg>
